<svg preserveAspectRatio="xMidYMid meet" data-bbox="-0.005 -0.02 459.899 500.81" viewBox="0 0 459.89 500.79" xmlns:xlink="http://www.w3.org/1999/xlink" xmlns="http://www.w3.org/2000/svg" data-type="ugc" role="presentation" aria-hidden="true">
    <g>
        <defs>
            <linearGradient gradientUnits="userSpaceOnUse" gradientTransform="rotate(-180 377.575 588.41)" y2="1012.52" x2="530.17" y1="1012.52" x1="300.8" id="svgcid--hijhya-1tjc4e">
                <stop stop-color="#43358b" offset="0"></stop>
                <stop stop-color="#009fe3" offset="1"></stop>
            </linearGradient>
            <linearGradient xlink:href="#svgcid--hijhya-1tjc4e" y2="688.41" x2="445.75" y1="922.15" x1="349.03" id="svgcid-839ce2fagss2"></linearGradient>
            <linearGradient xlink:href="#svgcid--hijhya-1tjc4e" y2="317.75" x2="234.91" y1="317.75" x1="5.54" id="svgcid--fhtdcy-m3tmbl"></linearGradient>
            <linearGradient xlink:href="#svgcid--hijhya-1tjc4e" y2="-6.35" x2="150.49" y1="227.39" x1="53.77" id="svgcid-5kffu3-lx0sjj"></linearGradient>
        </defs>
        <g style="isolation:isolate">
            <g style="mix-blend-mode:multiply" opacity=".3">
                <path d="M249.39 473.75c-2.65-2.12-5.31-4.23-8.03-6.26-7.8-5.83-15.79-11.42-23.01-18-4.74-4.33-9.67-8.47-14.26-12.96-5.72-5.6-11.16-11.5-16.75-17.23-3.82-3.91-7.75-7.71-11.52-11.67-3.92-4.12-7.75-8.33-11.55-12.57-3.11-3.46-6.19-6.96-9.14-10.56-3.4-4.15-6.72-8.37-9.91-12.69-4.85-6.56-9.76-13.09-14.26-19.88-5.12-7.74-9.91-15.71-14.68-23.69-4.41-7.38-8.88-14.74-12.79-22.38-4.21-8.2-7.94-16.66-11.62-25.11-2.83-6.51-5.26-13.19-7.85-19.81-.47-1.2-.85-2.45-1.27-3.67.85 1.32 1.46 2.74 2.05 4.16.73 1.77 1.68 3.49 2.08 5.32.32 1.48.95 2.39 2.18 3.11 1.06.62 2.14 1.26 3.09 2.04 2.28 1.89 4.37 4.02 6.74 5.77 4.16 3.07 8.45 5.97 12.74 8.85.97.65 2.15.97 3.34 1.48-.45-4.24-1.06-8.09-1.22-11.96-.2-4.89-.15-9.81.04-14.7.15-3.86.67-7.7 1.05-11.54.27-2.74.51-5.49.88-8.22.58-4.17 1.23-8.33 1.9-12.49.82-5.09 1.45-10.24 2.6-15.26 2.12-9.28 4.26-18.58 6.96-27.71 2.62-8.83 5.74-17.52 9.05-26.12 3.09-8.04 6.6-15.93 10.14-23.8 4.13-9.18 8.34-18.33 12.78-27.36 4.07-8.28 8.42-16.43 12.81-24.55 2.55-4.71 5.46-9.22 8.13-13.86 1.29-2.24 3.33-4.16 3.61-6.87.24-2.35.43-4.77.19-7.11-.4-3.91-.94-7.83-1.83-11.64-1.22-5.25-2.79-10.43-4.29-15.61-.29-.99-.88-2.21-2.17-1.88-2.85.75-5.74 1.48-8.41 2.67-6.23 2.77-11.96 6.46-17.37 10.6-6.56 5.03-13.13 10.06-19.59 15.21-3.88 3.09-7.61 6.37-11.34 9.63-4.35 3.8-8.81 7.5-12.88 11.58-5.72 5.73-11.22 11.69-16.62 17.72-3.75 4.18-7.38 8.49-10.73 12.99-5.62 7.57-10.96 15.35-16.45 23.02-4.71 6.58-6.59 14-6.75 21.97-.13 6.24.28 12.46 1.12 18.64.65 4.82 1.33 9.64 2.01 14.49-.37-.39-.8-.81-1.19-1.26-2.52-2.95-5-5.92-7.54-8.84-1.37-1.56-2.8-3.07-4.28-4.53-1.06-1.05-4.09-1.68-5.57-.46-2.8 2.32-4.85 5.19-6.52 8.27-5.01 9.22-9.98 18.48-14.63 27.88-5.04 10.19-9.34 20.72-12.62 31.62-1.44 4.78-2.45 9.71-3.41 14.62-.76 3.9-1.24 7.86-1.69 11.81-.48 4.24-.94 8.5-1.08 12.76-.14 4.02.08 8.06.25 12.08.08 1.92.24 3.87.64 5.75 1.48 7.02 3.42 13.89 5.97 20.61 4.37 11.53 9.57 22.65 15.5 33.44 5.13 9.35 10.92 18.25 17.79 26.42 4.11 4.89 8.18 9.85 12.6 14.46 4.54 4.73 9.37 9.2 14.3 13.53 4.93 4.34 10.06 8.46 15.25 12.5 6.44 5.02 12.9 10.02 19.58 14.72 9.55 6.71 19.21 13.27 28.99 19.62 8.05 5.23 16.29 10.19 24.57 15.04 7.35 4.3 14.85 8.34 22.33 12.42 8.64 4.71 17.45 9.09 26.74 12.35 6.45 2.26 12.99 4.26 19.55 6.18 5.27 1.54 10.65 2.64 16.17 2.9.91.04 2.21-.22 2.77 1.06h1.39c1.79-1.17 1.6-3.12 1.94-4.86.7-3.65 1.34-7.31 2.06-10.95.49-2.5 1.05-4.99 1.59-7.48.03-.15.18-.27.27-.41v-.84c-.11-.43-.18-.88-.33-1.29-.15-.42-.26-.96-.57-1.21Z" fill="#43358b"></path>
                <path d="M459.6 229.72c-.08-1.92-.24-3.87-.64-5.75-1.48-7.02-3.42-13.89-5.97-20.61-4.37-11.53-9.57-22.65-15.5-33.44-5.13-9.35-10.92-18.25-17.79-26.42-4.11-4.89-8.18-9.85-12.6-14.46-4.54-4.73-9.37-9.2-14.3-13.53-4.93-4.34-10.06-8.46-15.25-12.5-6.44-5.02-12.9-10.02-19.58-14.72-9.55-6.71-19.21-13.27-28.99-19.62-8.05-5.23-16.29-10.19-24.57-15.04-7.35-4.3-14.85-8.34-22.33-12.42-8.64-4.71-17.45-9.09-26.74-12.35-6.45-2.26-12.99-4.26-19.55-6.18-5.27-1.54-10.65-2.64-16.17-2.9-.91-.04-2.21.22-2.77-1.06h-1.39c-1.78 1.17-1.6 3.12-1.94 4.86-.7 3.65-1.34 7.31-2.06 10.95-.49 2.5-1.05 4.99-1.59 7.48-.03.15-.18.27-.27.41v.84c.11.43.18.88.33 1.29.15.42.26.96.57 1.21 2.65 2.12 5.31 4.23 8.03 6.26 7.8 5.83 15.79 11.42 23.01 18 4.74 4.33 9.67 8.47 14.26 12.96 5.72 5.6 11.16 11.5 16.75 17.23 3.82 3.91 7.75 7.71 11.52 11.67 3.92 4.12 7.75 8.33 11.55 12.57 3.11 3.46 6.19 6.96 9.14 10.56 3.4 4.15 6.72 8.37 9.91 12.69 4.85 6.56 9.76 13.09 14.26 19.88 5.12 7.74 9.91 15.71 14.68 23.69 4.41 7.38 8.88 14.74 12.79 22.38 4.21 8.2 7.94 16.66 11.62 25.11 2.83 6.51 5.26 13.19 7.85 19.81.47 1.2.85 2.45 1.27 3.67-.85-1.32-1.46-2.74-2.05-4.16-.73-1.77-1.68-3.49-2.08-5.32-.32-1.48-.95-2.39-2.18-3.11-1.06-.62-2.14-1.26-3.09-2.04-2.28-1.89-4.37-4.02-6.74-5.77-4.16-3.07-8.45-5.97-12.74-8.85-.97-.65-2.15-.97-3.34-1.48.45 4.24 1.06 8.09 1.22 11.96.2 4.89.15 9.81-.04 14.7-.15 3.86-.67 7.7-1.05 11.54-.27 2.74-.51 5.49-.88 8.22-.58 4.17-1.23 8.33-1.9 12.49-.82 5.09-1.45 10.24-2.6 15.26-2.12 9.28-4.26 18.58-6.96 27.71-2.62 8.83-5.74 17.52-9.05 26.12-3.09 8.04-6.6 15.93-10.14 23.8-4.13 9.18-8.34 18.33-12.78 27.36-4.07 8.28-8.42 16.43-12.81 24.55-2.55 4.71-5.46 9.22-8.13 13.86-1.29 2.24-3.33 4.16-3.61 6.87-.24 2.35-.43 4.77-.19 7.11.4 3.91.94 7.83 1.82 11.64 1.22 5.25 2.79 10.43 4.29 15.61.29.99.88 2.21 2.17 1.88 2.85-.75 5.74-1.48 8.41-2.67 6.23-2.77 11.96-6.46 17.37-10.6 6.56-5.03 13.13-10.06 19.59-15.21 3.88-3.09 7.61-6.37 11.34-9.63 4.35-3.8 8.81-7.5 12.88-11.58 5.72-5.73 11.22-11.69 16.62-17.72 3.75-4.18 7.38-8.49 10.73-12.99 5.62-7.57 10.96-15.35 16.45-23.02 4.71-6.58 6.59-14 6.76-21.97.13-6.24-.28-12.46-1.12-18.64-.65-4.82-1.33-9.64-2.01-14.49.37.39.8.81 1.19 1.26 2.52 2.95 5 5.92 7.54 8.84 1.37 1.56 2.8 3.07 4.28 4.53 1.06 1.05 4.09 1.68 5.57.46 2.8-2.32 4.85-5.19 6.52-8.27 5.01-9.22 9.98-18.48 14.63-27.88 5.04-10.19 9.34-20.72 12.62-31.62 1.44-4.78 2.45-9.71 3.41-14.62.76-3.9 1.24-7.86 1.69-11.81.48-4.24.94-8.5 1.08-12.76.14-4.02-.08-8.06-.25-12.08Z" fill="#43358b"></path>
            </g>
            <path d="M418.93 323.5c0-1.16.04-2.32 0-3.47-.17-4.57-.12-9.18-.61-13.72-.8-7.32-1.88-14.61-3-21.89-1.94-12.53-5.39-24.69-9.58-36.62-3.72-10.58-7.8-21.04-11.84-31.51-4.6-11.9-9.63-23.61-15.39-34.99-4.92-9.73-10.54-19.07-16.56-28.16-4.29-6.48-8.5-13.03-12.96-19.39-5.67-8.1-11.4-16.17-17.42-24.02-4.43-5.77-9.31-11.19-14.09-16.69-3.55-4.08-7.16-8.11-10.9-12.02-10.57-11.04-21.13-22.07-31.86-32.96-5.47-5.56-11.21-10.85-16.95-16.14-4.71-4.35-9.44-8.68-14.42-12.71-5.91-4.79-12.1-9.24-18.16-13.84-.06-.05-.08-.16-.2-.4 2.78.7 5.49 1.24 8.1 2.07 6.74 2.15 13.49 4.26 20.12 6.71 8.37 3.09 16.32 7.13 24.13 11.44 8.56 4.73 17.31 9.15 25.67 14.21a947.71 947.71 0 0 1 35.17 22.33c9.52 6.34 18.78 13.08 28 19.86 5.65 4.16 11.09 8.62 16.49 13.12 5.07 4.22 10.16 8.45 14.88 13.05 4.98 4.85 9.67 10.01 14.22 15.26 4.08 4.72 8 9.61 11.59 14.71 3.5 4.97 6.73 10.18 9.64 15.51 3.68 6.74 7.13 13.62 10.3 20.6 3.66 8.05 6.91 16.29 8.81 24.97.88 4.01 1.45 8.1 1.87 12.18.33 3.21.42 6.48.28 9.71-.18 4.27-.63 8.53-1.07 12.78-.39 3.73-.83 7.47-1.42 11.17-.49 3.1-1.17 6.17-1.86 9.24-1.96 8.65-5.09 16.92-8.46 25.1-2.19 5.31-4.56 10.56-7.05 15.74-3.21 6.68-6.55 13.29-9.95 19.88-1.59 3.08-3.44 6.02-5.18 9.02l-.37-.14Zm-24.28-203.07-.22.23c.04.12.05.28.13.37 5.08 5.42 9.3 11.5 13.19 17.78 3.49 5.63 6.61 11.5 9.79 17.33 4.84 8.88 9.04 18.06 12.62 27.52 3.13 8.28 5.65 16.74 7.33 25.43.83 4.31 1.43 8.69 1.73 13.06.29 4.11.15 8.27.03 12.4-.06 2.14-.48 4.27-.75 6.41-.3 2.41-.6 4.81-.89 7.22-.19 1.55-.43 3.1-.51 4.65-.09 1.6-.02 3.2-.02 4.8.51-.26.69-.52.8-.81.53-1.4 1.03-2.82 1.58-4.22 3.43-8.75 4.53-17.89 4.54-27.21 0-2.49-.05-5-.29-7.48-.37-3.88-.67-7.79-1.45-11.59-2.07-10.09-5.59-19.73-10.01-29-3.31-6.93-6.81-13.79-10.66-20.42-3.78-6.53-7.88-12.9-12.26-19.04-3.89-5.46-8.35-10.52-12.6-15.71-.56-.68-1.38-1.14-2.07-1.71Zm-9.1-5.49c2.17.36 4.3 1.19 6.59.56-.73-1.6-1.84-1.7-6.59-.56Zm-.8-3.16-.02.44c.83.15 1.66.32 2.49.43.89.12 1.26-.46.99-1.16-.14-.36-.9-.79-1.28-.71-.77.16-1.46.64-2.19.99Z" fill="url(#svgcid--hijhya-1tjc4e)"></path>
            <path d="M287.91 467.5c1.32-2.05 2.67-4.09 3.95-6.16 6.69-10.8 13.41-21.58 20.02-32.43 4.19-6.88 8.41-13.77 12.23-20.86 4.55-8.44 8.91-17.01 12.92-25.72 3.99-8.65 7.6-17.49 11.09-26.36 3.44-8.74 6.66-17.57 9.71-26.46 3.03-8.83 5.9-17.72 8.48-26.69 1.62-5.64 2.74-11.45 3.78-17.24.9-5 1.42-10.06 1.99-15.11.47-4.16.78-8.34 1.13-12.51.24-2.94.43-5.88.66-9.2 1.34 3.54 2.55 6.76 3.78 9.97 2.59 6.77 5.12 13.57 7.82 20.3 3.4 8.48 6.74 16.97 8.57 25.95 1.22 5.99 2.42 11.99 3.39 18.03.76 4.79 1.29 9.64 1.67 14.48.31 3.96.47 7.97.26 11.94-.35 6.89-2.55 13.22-6.62 18.84-4.08 5.64-8.06 11.36-12.24 16.92-3.49 4.65-7.12 9.21-10.87 13.66-3.68 4.37-7.54 8.6-11.4 12.82-2.63 2.87-5.3 5.73-8.13 8.4-4.9 4.61-9.87 9.14-14.95 13.56-4.95 4.31-10.05 8.46-15.11 12.65-6.91 5.72-14.02 11.18-21.61 15.97-3.28 2.08-6.81 3.76-10.23 5.62l-.3-.37Zm78.74-80.97.49.32 8.15-9.23c4.33-4.89 8.54-9.89 11.87-15.54 2.76-4.7 4.54-9.74 4.74-15.27.16-4.36-.64-8.6-1.48-12.83-1.38-6.99-2.81-13.97-4.42-20.91-1.31-5.63-2.9-11.2-4.46-16.78-.32-1.13-.72-2.37-2.09-2.9-.03.2-.08.34-.05.46 1 4.11 2.11 8.2 2.99 12.34.58 2.72.81 5.52 1.22 8.28.52 3.43 1.08 6.86 1.59 10.3.51 3.44.92 6.9 1.47 10.33.66 4.11 1.1 8.23.46 12.37-.93 6.08-3.12 11.72-6.43 16.9-3.91 6.12-7.94 12.17-11.88 18.28-.8 1.24-1.45 2.58-2.17 3.88Zm-35.34 36.87 1.56 1.89 1.57-1.45c-.62-.53-1.19-1.13-1.88-1.54-.12-.07-.69.59-1.25 1.1Z" fill="url(#svgcid-839ce2fagss2)"></path>
            <path d="M413.88 323.19c-2.48-3.47-4.6-6.69-6.99-9.69-1.27-1.59-2.81-3.41-4.61-4.02-2.14-.73-2.68-1.87-3.03-3.78-1.47-7.82-4.28-15.25-6.7-22.81-2.94-9.2-5.13-18.65-7.56-28.01-2.69-10.35-6.25-20.4-10.05-30.39-3.96-10.42-8.05-20.79-13.22-30.66-4.09-7.81-8.62-15.4-13.06-23.02-3.17-5.44-6.36-10.88-9.81-16.14-4.77-7.27-9.7-14.44-14.76-21.51-3.76-5.26-7.77-10.36-11.79-15.43-3.29-4.14-6.67-8.21-10.18-12.15-5.16-5.8-10.36-11.57-15.76-17.15-8.38-8.64-16.9-17.15-25.44-25.63-3.51-3.49-7.11-6.9-10.86-10.13-5.86-5.05-11.69-10.14-17.87-14.78-5.43-4.07-11.31-7.53-16.99-11.26-.11-.08-.2-.19-.27-.24 2.69-6.72 4.39-13.58 3.65-21.11 2.57 1.79 5.12 3.42 7.51 5.27 3.85 2.97 7.75 5.91 11.37 9.16 8.64 7.77 17.23 15.6 25.64 23.62 7.89 7.53 15.56 15.29 23.25 23.03 4.15 4.17 8.21 8.42 12.18 12.76 5.44 5.94 10.82 11.93 16.09 18.03 4.67 5.41 9.26 10.9 13.68 16.51 5.11 6.48 10.1 13.07 14.97 19.73 4.46 6.11 8.86 12.27 12.99 18.61 4.56 7.01 8.99 14.12 13.08 21.42 3.89 6.94 7.54 14.03 10.78 21.29 4.29 9.62 8.14 19.43 12.04 29.22 2.46 6.17 4.9 12.36 6.91 18.68 2.85 8.97 5.44 18.02 7.85 27.12 1.49 5.63 2.62 11.37 3.59 17.12.9 5.33 1.43 10.72 2 16.1.4 3.84.59 7.71.86 11.56.19 2.76.34 5.52.53 8.68Zm-188.33-295 .12.5c.18.01.38.07.55.03 3.51-.75 7.02-1.49 10.51-2.3.3-.07.49-.62.73-.94-.41-.21-.83-.62-1.23-.59-.8.05-1.61.26-2.38.52-2.77.91-5.53 1.86-8.3 2.79Zm17.24 6.06c-.99.09-1.81.16-2.92.26 1.83 1.11 2.54 1.05 2.92-.26Z" fill="#36a9e1"></path>
            <path d="M284.65 464.52c-.86-3.52-1.79-7.03-2.56-10.57-.66-3.03-1.34-6.08-1.62-9.15-.31-3.47-.2-6.87 1.83-10.09 4.08-6.47 8.04-13.02 11.7-19.73 5.03-9.24 9.9-18.57 14.51-28.02 4.19-8.58 8.07-17.31 11.85-26.08 3.7-8.59 7.39-17.21 10.56-26.01 3.3-9.17 6.25-18.48 8.85-27.87 2.15-7.77 3.63-15.74 5.27-23.64 1.23-5.9 2.31-11.84 3.31-17.79.55-3.26.9-6.55 1.15-9.85.46-6.21.85-12.44 1.14-18.66.24-5.22-.39-10.37-1.65-15.44-.04-.17 0-.37 0-.9 3.86 2.91 7.5 5.7 11.19 8.41 2.17 1.59 4.42 3.09 6.68 4.56.75.49 1.11.99 1.11 1.95 0 2.87.33 5.75.21 8.6-.23 5.12-.68 10.22-1.07 15.33-.26 3.44-.48 6.89-.87 10.32-.46 4-.98 8.01-1.66 11.98-.92 5.35-1.79 10.73-3.1 15.99-1.94 7.78-4.02 15.54-6.45 23.17-3.2 10.07-6.68 20.07-10.28 30.01-2.37 6.56-4.95 13.06-7.82 19.41-4.47 9.87-9.1 19.68-14 29.34-3.64 7.17-7.77 14.1-11.75 21.09-3.22 5.64-6.51 11.25-9.84 16.82-4.08 6.84-8.24 13.63-12.37 20.44-1.3 2.14-2.6 4.28-3.91 6.42l-.4-.05Zm67.87-230.53-.39.47c3.49 3.78 6.97 7.58 10.51 11.32.27.28.94.18 1.43.26-.03-.45.13-1.08-.11-1.33-2.36-2.5-4.73-5-7.21-7.38-1.29-1.24-2.81-2.24-4.22-3.34Zm.49 12.49c-.06.25-.13.37-.1.42 2.21 3.32 4.43 6.64 6.68 9.93.14.21.76.33.98.2.81-.48.84-1.18.37-1.99-1.65-2.87-3.95-5.16-6.32-7.41-.46-.44-1.05-.75-1.63-1.15Zm.54 9.38-.47.46c1.85 2.47 3.68 4.94 5.55 7.39.15.2.52.22.78.33.12-.31.34-.63.32-.93-.02-.28-.26-.58-.46-.81-1.9-2.15-3.81-4.29-5.72-6.43Zm-.24 12.07 1.43 3.3c.77-1.06.39-2.01-1.43-3.3Z" fill="#36a9e1"></path>
            <path d="M216.85 0c.56 1.28 1.87 1.01 2.77 1.06 5.53.26 10.9 1.36 16.17 2.9 6.56 1.92 13.1 3.92 19.55 6.18 9.29 3.26 18.11 7.63 26.74 12.35 7.48 4.08 14.98 8.12 22.33 12.42 8.29 4.85 16.52 9.81 24.57 15.04 9.79 6.35 19.45 12.91 28.99 19.62 6.68 4.69 13.14 9.7 19.58 14.72 5.18 4.04 10.31 8.17 15.25 12.5 4.93 4.33 9.76 8.8 14.3 13.53 4.42 4.6 8.49 9.56 12.6 14.46 6.86 8.17 12.66 17.07 17.79 26.42 5.93 10.8 11.12 21.92 15.5 33.44 2.55 6.73 4.5 13.6 5.97 20.61.39 1.88.56 3.82.64 5.75.17 4.02.39 8.06.25 12.08-.15 4.26-.61 8.52-1.08 12.76-.44 3.95-.92 7.92-1.69 11.81-.96 4.91-1.97 9.83-3.41 14.62-3.28 10.9-7.58 21.43-12.62 31.62-4.66 9.4-9.63 18.65-14.63 27.88-1.67 3.08-3.72 5.96-6.52 8.27-1.48 1.23-4.51.6-5.57-.46a91.608 91.608 0 0 1-4.28-4.53c-2.55-2.92-5.03-5.9-7.54-8.84-.38-.45-.81-.86-1.19-1.26.67 4.85 1.35 9.67 2.01 14.49.84 6.18 1.25 12.4 1.12 18.64-.17 7.97-2.05 15.39-6.75 21.97-5.49 7.67-10.83 15.45-16.45 23.02-3.35 4.5-6.98 8.82-10.73 12.99-5.41 6.03-10.91 11.99-16.62 17.72-4.07 4.08-8.54 7.78-12.88 11.58-3.73 3.27-7.46 6.54-11.34 9.63-6.47 5.15-13.03 10.18-19.59 15.21-5.41 4.14-11.13 7.83-17.37 10.6-2.67 1.19-5.57 1.92-8.41 2.67-1.29.34-1.88-.88-2.17-1.88-1.5-5.19-3.07-10.36-4.29-15.61-.89-3.82-1.42-7.74-1.82-11.64-.24-2.34-.05-4.75.19-7.11.28-2.72 2.32-4.63 3.61-6.87 2.68-4.64 5.59-9.15 8.13-13.86 4.39-8.12 8.74-16.27 12.81-24.55 4.44-9.03 8.66-18.18 12.78-27.36 3.54-7.86 7.04-15.75 10.14-23.8 3.31-8.6 6.43-17.29 9.05-26.12 2.71-9.12 4.84-18.42 6.96-27.71 1.15-5.02 1.77-10.17 2.6-15.26.67-4.16 1.33-8.32 1.9-12.49.38-2.73.61-5.48.88-8.22.38-3.85.9-7.69 1.05-11.54.19-4.9.24-9.81.04-14.7-.15-3.87-.77-7.72-1.22-11.96 1.18.51 2.37.83 3.34 1.48 4.29 2.89 8.58 5.78 12.74 8.85 2.37 1.75 4.46 3.88 6.74 5.77.95.78 2.02 1.42 3.09 2.04 1.22.72 1.86 1.63 2.18 3.11.39 1.84 1.35 3.56 2.08 5.32.59 1.42 1.2 2.84 2.05 4.16-.42-1.22-.79-2.47-1.27-3.67-2.59-6.61-5.02-13.3-7.85-19.81-3.68-8.46-7.41-16.91-11.62-25.11-3.92-7.64-8.39-15-12.79-22.38-4.76-7.97-9.55-15.94-14.68-23.69-4.5-6.8-9.41-13.32-14.26-19.88-3.19-4.31-6.51-8.53-9.91-12.69-2.95-3.6-6.03-7.09-9.14-10.56-3.8-4.24-7.63-8.45-11.55-12.57-3.77-3.96-7.71-7.76-11.52-11.67-5.59-5.73-11.03-11.63-16.75-17.23-4.59-4.49-9.51-8.63-14.26-12.96-7.22-6.59-15.21-12.17-23.01-18-2.72-2.03-5.38-4.14-8.03-6.26-.31-.25-.42-.79-.57-1.21-.15-.42-.22-.86-.33-1.3v-.84c.09-.14.23-.26.27-.41.54-2.49 1.1-4.98 1.59-7.48.71-3.65 1.36-7.3 2.06-10.95.33-1.74.15-3.7 1.94-4.87h1.39Zm202.07 323.5.37.14c1.73-3 3.59-5.94 5.18-9.02 3.4-6.58 6.75-13.2 9.95-19.88 2.49-5.18 4.86-10.43 7.05-15.74 3.37-8.17 6.49-16.44 8.46-25.1.69-3.06 1.37-6.14 1.86-9.24.59-3.71 1.03-7.44 1.42-11.17.44-4.25.89-8.51 1.07-12.78.14-3.23.05-6.5-.28-9.71-.42-4.08-.99-8.17-1.87-12.18-1.9-8.67-5.15-16.92-8.81-24.97-3.18-6.99-6.62-13.87-10.3-20.6-2.92-5.34-6.14-10.54-9.64-15.51-3.59-5.1-7.52-9.99-11.59-14.71-4.54-5.26-9.24-10.42-14.22-15.26-4.72-4.6-9.81-8.83-14.88-13.05-5.4-4.49-10.83-8.96-16.49-13.12-9.22-6.78-18.48-13.52-28-19.86a974.658 974.658 0 0 0-35.17-22.33c-8.36-5.06-17.11-9.48-25.67-14.21-7.81-4.31-15.76-8.35-24.13-11.44-6.63-2.45-13.39-4.56-20.12-6.71-2.61-.84-5.32-1.37-8.1-2.07.12.25.14.36.2.4 6.06 4.6 12.25 9.05 18.16 13.84 4.98 4.03 9.71 8.37 14.42 12.71 5.73 5.29 11.47 10.59 16.95 16.14 10.72 10.88 21.29 21.92 31.86 32.96 3.74 3.91 7.35 7.94 10.9 12.02 4.78 5.49 9.66 10.92 14.09 16.69 6.02 7.84 11.74 15.92 17.42 24.02 4.46 6.37 8.67 12.91 12.96 19.39 6.02 9.09 11.63 18.43 16.56 28.16 5.76 11.38 10.8 23.1 15.39 34.99 4.04 10.47 8.12 20.93 11.84 31.51 4.19 11.93 7.64 24.09 9.58 36.62 1.13 7.28 2.2 14.57 3 21.89.5 4.54.44 9.14.61 13.72.04 1.16 0 2.31 0 3.47Zm-131.01 144 .3.37c3.42-1.86 6.95-3.55 10.23-5.62 7.58-4.79 14.7-10.25 21.61-15.97 5.06-4.19 10.16-8.33 15.11-12.65a532.68 532.68 0 0 0 14.95-13.56c2.84-2.67 5.5-5.52 8.13-8.4 3.86-4.22 7.72-8.44 11.4-12.82 3.74-4.45 7.37-9.01 10.87-13.66 4.18-5.56 8.16-11.28 12.24-16.92 4.07-5.63 6.27-11.96 6.62-18.84.2-3.97.04-7.97-.26-11.94-.37-4.84-.9-9.68-1.67-14.48-.96-6.04-2.16-12.04-3.39-18.03-1.84-8.98-5.18-17.47-8.57-25.95-2.7-6.73-5.22-13.53-7.82-20.3-1.23-3.21-2.44-6.43-3.78-9.97-.24 3.32-.42 6.26-.66 9.2-.35 4.17-.66 8.35-1.13 12.51-.57 5.05-1.09 10.12-1.99 15.11-1.04 5.79-2.16 11.59-3.78 17.24-2.58 8.97-5.45 17.86-8.48 26.69-3.05 8.89-6.27 17.72-9.71 26.46-3.49 8.87-7.1 17.71-11.09 26.36-4.01 8.71-8.37 17.27-12.92 25.72-3.82 7.09-8.04 13.97-12.23 20.86-6.61 10.85-13.33 21.63-20.02 32.43-1.28 2.07-2.63 4.11-3.95 6.16Zm125.97-144.31c-.19-3.16-.34-5.92-.53-8.68-.26-3.86-.45-7.72-.86-11.56-.56-5.38-1.1-10.77-2-16.1-.97-5.75-2.1-11.49-3.59-17.12-2.41-9.09-5-18.15-7.85-27.12-2.01-6.32-4.45-12.51-6.91-18.68-3.9-9.79-7.75-19.6-12.04-29.22-3.24-7.26-6.89-14.36-10.78-21.29-4.09-7.29-8.52-14.41-13.08-21.42-4.12-6.34-8.52-12.51-12.99-18.61-4.87-6.67-9.86-13.25-14.97-19.73-4.43-5.61-9.01-11.1-13.68-16.51-5.27-6.09-10.65-12.09-16.09-18.03-3.97-4.34-8.03-8.59-12.18-12.76-7.69-7.73-15.36-15.5-23.25-23.03-8.41-8.02-17-15.85-25.64-23.62-3.61-3.25-7.51-6.19-11.37-9.16-2.39-1.84-4.94-3.47-7.51-5.27.74 7.53-.96 14.39-3.65 21.11.06.06.15.17.27.24 5.68 3.73 11.56 7.19 16.99 11.26 6.18 4.63 12.02 9.73 17.87 14.78 3.75 3.23 7.35 6.64 10.86 10.13 8.54 8.49 17.06 16.99 25.44 25.63 5.4 5.57 10.6 11.35 15.76 17.15 3.51 3.95 6.9 8.02 10.18 12.15 4.03 5.07 8.03 10.17 11.79 15.43 5.06 7.07 9.99 14.25 14.76 21.51 3.45 5.26 6.64 10.7 9.81 16.14 4.44 7.62 8.97 15.21 13.06 23.02 5.17 9.87 9.25 20.24 13.22 30.66 3.8 9.99 7.36 20.04 10.05 30.39 2.43 9.36 4.62 18.81 7.56 28.01 2.41 7.56 5.23 14.98 6.7 22.81.36 1.91.89 3.04 3.03 3.78 1.8.62 3.34 2.43 4.61 4.02 2.39 3 4.51 6.21 6.99 9.69ZM284.65 464.53l.4.05c1.3-2.14 2.61-4.28 3.91-6.42 4.13-6.81 8.29-13.6 12.37-20.44 3.33-5.58 6.62-11.18 9.84-16.82 3.99-6.99 8.11-13.92 11.75-21.09 4.9-9.66 9.52-19.47 14-29.34 2.88-6.35 5.45-12.85 7.82-19.41 3.6-9.94 7.07-19.93 10.28-30.01 2.43-7.64 4.51-15.39 6.45-23.17 1.31-5.26 2.18-10.64 3.1-15.99.68-3.97 1.21-7.97 1.66-11.98.39-3.43.61-6.88.87-10.32.39-5.11.84-10.22 1.07-15.33.13-2.86-.21-5.74-.21-8.6 0-.96-.35-1.46-1.11-1.95-2.26-1.47-4.51-2.97-6.68-4.56-3.7-2.71-7.34-5.51-11.19-8.41 0 .54-.04.73 0 .9 1.26 5.07 1.89 10.22 1.65 15.44-.29 6.22-.67 12.45-1.14 18.66-.24 3.29-.6 6.59-1.15 9.85-1 5.95-2.08 11.88-3.31 17.79-1.64 7.91-3.12 15.87-5.27 23.64-2.6 9.39-5.54 18.71-8.85 27.87-3.17 8.8-6.86 17.42-10.56 26.01-3.78 8.77-7.66 17.51-11.85 26.08-4.61 9.45-9.49 18.78-14.51 28.02-3.66 6.71-7.62 13.26-11.7 19.73-2.03 3.22-2.13 6.62-1.83 10.09.27 3.07.96 6.12 1.62 9.15.77 3.54 1.7 7.05 2.56 10.57Z"></path>
            <path d="M394.64 120.43c.7.56 1.52 1.03 2.07 1.71 4.25 5.2 8.7 10.26 12.6 15.71 4.38 6.14 8.48 12.52 12.26 19.04 3.85 6.64 7.36 13.5 10.66 20.42 4.42 9.27 7.95 18.91 10.01 29 .78 3.8 1.08 7.71 1.45 11.59.24 2.48.29 4.99.29 7.48-.01 9.32-1.12 18.46-4.54 27.21-.55 1.4-1.04 2.82-1.58 4.22-.11.29-.29.55-.8.81 0-1.6-.07-3.21.02-4.8.09-1.55.33-3.1.51-4.65.29-2.41.59-4.81.89-7.22.26-2.14.68-4.27.75-6.41.12-4.13.26-8.28-.03-12.4-.31-4.38-.9-8.76-1.73-13.06-1.68-8.69-4.2-17.15-7.33-25.43-3.58-9.47-7.78-18.64-12.62-27.52-3.17-5.83-6.3-11.69-9.79-17.33-3.89-6.28-8.11-12.37-13.19-17.78-.08-.09-.09-.24-.13-.37l.22-.23Z" fill="#36a9e1"></path>
            <path d="M385.54 114.94c4.76-1.14 5.86-1.04 6.59.56-2.3.62-4.43-.21-6.59-.56Z" fill="#36a9e1"></path>
            <path d="M384.74 111.78c.73-.35 1.42-.83 2.19-.99.38-.08 1.14.34 1.28.71.27.71-.1 1.28-.99 1.16-.84-.11-1.66-.29-2.49-.43l.02-.44Z" fill="#36a9e1"></path>
            <path d="M366.65 386.53c.72-1.29 1.37-2.63 2.17-3.88 3.94-6.1 7.97-12.15 11.88-18.28 3.31-5.17 5.49-10.82 6.43-16.9.64-4.14.2-8.26-.46-12.37-.55-3.43-.96-6.89-1.47-10.33-.51-3.44-1.08-6.86-1.59-10.3-.41-2.76-.64-5.56-1.22-8.28-.88-4.14-1.99-8.23-2.99-12.34-.03-.12.03-.26.05-.46 1.37.53 1.78 1.78 2.09 2.9 1.55 5.57 3.14 11.14 4.46 16.78 1.62 6.94 3.04 13.92 4.42 20.91.84 4.23 1.63 8.47 1.48 12.83-.2 5.53-1.98 10.57-4.74 15.27-3.32 5.65-7.53 10.65-11.87 15.54-2.72 3.07-5.43 6.15-8.15 9.23l-.49-.32Z" fill="#36a9e1"></path>
            <path d="M331.31 423.4c.56-.5 1.13-1.17 1.25-1.1.69.42 1.27 1.01 1.88 1.54l-1.57 1.45-1.56-1.89Z" fill="#36a9e1"></path>
            <path d="M225.55 28.19c2.76-.93 5.52-1.89 8.3-2.79.77-.25 1.58-.47 2.38-.52.4-.02.82.38 1.23.59-.24.32-.43.87-.73.94-3.49.81-7 1.55-10.51 2.3-.17.04-.37-.02-.55-.03l-.12-.5Z"></path>
            <path d="M242.79 34.25c-.38 1.31-1.09 1.37-2.92.26 1.11-.1 1.93-.17 2.92-.26Z"></path>
            <path d="M352.52 233.99c1.42 1.11 2.93 2.11 4.22 3.34 2.48 2.38 4.85 4.88 7.21 7.38.24.25.08.88.11 1.33-.49-.08-1.16.02-1.43-.26-3.54-3.74-7.01-7.54-10.51-11.32l.39-.47Z"></path>
            <path d="M353.01 246.48c.58.4 1.16.71 1.63 1.15 2.37 2.24 4.67 4.54 6.32 7.41.47.81.43 1.51-.37 1.99-.22.13-.84 0-.98-.2-2.26-3.29-4.47-6.61-6.68-9.93-.03-.05.03-.17.1-.42Z"></path>
            <path d="M353.55 255.87c1.91 2.14 3.82 4.28 5.72 6.43.21.23.45.53.46.81.02.3-.21.62-.32.93-.27-.11-.63-.13-.78-.33-1.87-2.45-3.71-4.92-5.55-7.39l.47-.46Z"></path>
            <path d="M353.3 267.94c1.83 1.3 2.2 2.24 1.43 3.3l-1.43-3.3Z"></path>
            <path d="m186.78 112.62 5.44-.94c1.58-.27 2.48.29 2.67 1.7.73-.13 1.28-.36 1.64-.72 1.42-.24 4.46.81 9.14 3.17.45 1.15 1.91 2.48 4.38 4 .21 1.55 1.26 2.38 3.13 2.48l.18 1.27-.5 1.38c2.85 2.17 4.29 3.36 4.32 3.57l.06.42-.22.9c.4-.07 1.29 1.36 2.68 4.29l.23 1.69-.05 2.17 1.14.67.9-1.02c.46 0 .73.24.8.73l.06.42c.12.84-.28 1.34-1.18 1.5l.18 1.27c.98 2.06 2.12 3.59 3.42 4.59.6.97.98 2.06 1.15 3.26l.06.42c.02.14-.34.92-1.07 2.35l.23 1.69c.1.7 1.08 1.11 2.95 1.22l.46.78.06.42c-.73 1.42-1.09 2.21-1.07 2.34l.06.42c1.79 6.6 3.39 9.78 4.8 9.54l.46.79.06.42c-.53 1.17-.76 2.07-.67 2.71 1.67.36 2.54.78 2.61 1.28l.07 3.01c3.35 6.19 5.75 10.1 7.19 11.72l-.05 2.17c.34-.06.87.43 1.59 1.45-.15.6-.2 1.04-.16 1.32.93 2.15 1.66 3.17 2.17 3.08l.18 1.27-.68.12.12.84c.81.44 2.15 2.51 4 6.22l2.73 2.12.68-.12.12.84c.08.56-.11.88-.56.96.31 2.25 2.28 3.06 5.91 2.44.79-.14 1.26-1.8 1.4-5-.29-.45-.49-1-.57-1.63l-.06-.42c1.29-.29 2.68-2.84 4.16-7.63l-1.84-5.73v-2.59l-.59-1.63c.67-1.85.95-3.19.83-4.03l-.29-2.11c-1.37-3.58-2.32-5.43-2.86-5.56-.16-3.21-.2-5.22-.14-6.03-.58-.83-.92-1.64-1.03-2.41.14-3.98.17-6.3.08-6.93-.29-.45-.51-1.14-.63-2.05.68-.12.94-.74.78-1.87-.58-.83-.9-1.5-.97-1.99.45-.08.6-1.54.44-4.4-.18-1.27.57-3.41 2.24-6.44.24-5.8.75-8.78 1.55-8.91 1.08-.19 1.98-2.07 2.7-5.65 2.86-5.75 5.17-9.17 6.93-10.27 2.49-4.18 4.85-6.46 7.06-6.84 5.46-4.98 9.53-8.27 12.2-9.89l.68-.12c.73-.13 2.36-.12 4.87.02-.08-.56.22-.9.9-1.02 2.04.51 4.16.72 6.35.63.21.68 2.37 2.04 6.48 4.07.33 2.39 2.04 4.69 5.13 6.89.2 1.41 1.28 3.38 3.26 5.92.7 1.68 1.06 2.62 1.09 2.84l1.64-.72.34-.06c.72.16 1.18.95 1.37 2.36-.79.14-1.16 1.64-1.11 4.51.94 1.78 1.44 2.85 1.49 3.2-1.08.55-1.59 1.07-1.52 1.56.4-.07.97.7 1.71 2.3-.32 2.72-.44 4.33-.38 4.82 1.27.79 2.05 2.24 2.34 4.35.55 3.94.47 7.55-.24 10.84l1.68 7.06v2.59c.71.02 1.21 1.09 1.5 3.2l-.22.9c.57.77.93 1.71 1.09 2.84v2.59c3.44 7.98 5.21 12.43 5.34 13.34l-.22.9c.65 1.33 1.23 3.82 1.73 7.48l.12.84c1.73.78 2.62 1.35 2.67 1.7l.12.84-.79 1.87c1.85.76 3.02 1.71 3.53 2.85.08.56.05 2.01-.1 4.34.62-.11 1.27 1.22 1.95 3.98 1.31 1.07 2.09 2.52 2.34 4.35l-.05 2.17c2.46 1.02 3.87 2.79 4.22 5.32.04.28-.05.44-.28.48.81 1.23 1.71 3.52 2.69 6.88.04.28-.06.44-.28.48.05.35 1.48 3.13 4.29 8.33.89 3.52 2.13 5.75 3.71 6.71l-.05 2.17c.74-.13 1.94 1.83 3.6 5.86 3.43 3.01 5.43 6.55 6 10.63.28-.05.89 1 1.83 3.14.91-.16 1.56 1.17 1.95 3.99 2.93 2.73 4.61 5.61 5.03 8.64.19 1.34 1 3.07 2.46 5.19l6.68 10.52c.91-.16 2.11 1.8 3.6 5.86 1.67.72 3.34 2.74 5.02 6.05.4-.07 1.56 1.61 3.48 5.02 1.72.71 2.71 1.98 2.97 3.81l-.22.9c.96-.17 2.07 1.95 3.32 6.34l-.22.9c3.3 5.41 5 8.43 5.09 9.06.62-.11 2.18 1.93 4.68 6.11 1.13-.2 1.95.67 2.45 2.6.6.55 3.23 1.96 7.9 4.25.06.42 1.1 1.25 3.13 2.48l4.09 1.89c5.05 3.81 8.32 7.28 9.8 10.41 1.64-.28 3.11 1.91 4.39 6.59.93-.01 1.44.33 1.53 1.03l.06.42c.11.77 0 1.66-.33 2.65.67 1.47 1.28 3.38 1.84 5.73-.71 1.56-1.39 5.86-2.04 12.89-.66.26-1.31 2.24-1.96 5.96-.62.11-1.5 2.13-2.64 6.07-.4.07-1.05 1.19-1.97 3.37-1.74 1.24-3.02 2.9-3.83 4.99-2.34 2.35-4.23 3.83-5.65 4.43-.81-.43-1.53-.6-2.16-.49-1.02 1.04-2.09 1.66-3.22 1.85l-1.14-.67-.34.06c-.63.11-1.27.51-1.92 1.2-.49-.2-.85-.28-1.08-.25l-1.64.72c-.08-.56-.46-.78-1.14-.67l-.62.54c-.97-.26-1.48-.61-1.54-1.03l-3.34 1.01c-2.95-1.22-4.66-1.79-5.11-1.71.11-.88.28-1.35.5-1.38-.34-.8-.63-1.19-.85-1.15l-2.32.83c-.14-.55-1.27-1.22-3.41-2l.05-2.17-.06-.42c-1.59.27-3.41-2-5.47-6.83l-.12-.84.5-1.38-.18-1.27c-1.04-.83-2.97-5.54-5.79-14.13-1.25-.65-1.93-1.4-2.05-2.24.33-.99.44-1.88.33-2.65l-.06-.42c-1.99-.95-3.09-2.2-3.31-3.75l-.47-3.38c-1.98-2.54-3.04-4.37-3.2-5.5l-.41-2.95c-1.47-.97-2.54-2.8-3.2-5.5-.45.08-1.37-1.49-2.74-4.71-.96.17-2.56-2.15-4.79-6.95l-.18-1.27c-.91.16-2.41-2.32-4.51-7.43-.91.16-1.4-.04-1.48-.61l-.06-.42.5-1.38-.18-1.27c-1.08.19-2.37-1.61-3.88-5.38-.66-1.83-2.24-4-4.73-6.53.33-.99.44-1.88.33-2.65-1.39-1.2-2.28-1.77-2.67-1.7l-.12-.84c-.73-5.28-2.9-9.22-6.51-11.84-1.53-2.69-2.35-4.42-2.46-5.19-1.3.23-2.39-1.75-3.26-5.92-2.5-1.3-3.92-3.21-4.28-5.74-.79.14-2.47-2.74-5.03-8.64l.22-.9c-4.05-4.12-6.12-6.5-6.21-7.14.09-1.02.13-1.6.11-1.75-.44-3.16-1.88-5.22-4.34-6.16-.96-.27-1.49-.75-1.59-1.45l.22-.9c-.41-1.73-2.15-4.17-5.19-7.31v-2.59l-.13-.85c-.04-.28-2.03-2.1-5.98-5.45l-.12-.84-.68.12-1.52 1.56-1.48-.61c-.66.69-1.3 1.09-1.92 1.2-.35-.8-1.08-1.11-2.21-.91l-1.36.24c-1.64.28-2.37 1.71-2.19 4.27-1.53.26-2.32 2.13-2.36 5.59-1.32 1.74-2.91 6.19-4.76 13.36-.44.15-.63.47-.56.96l.12.84.75 2.9c-1.73 2.6-2.57 4.05-2.53 4.33l.23 1.69.85 1.15.23 1.69-2.46 7.34c.7 1.68 1.08 2.77 1.15 3.26-.13 1.17-.58 2.12-1.35 2.83l.63 2.05.23 1.69c-1.09 1.34-1.8 2.9-2.13 4.69.17 1.2.55 2.28 1.15 3.26-.12.81-.64 2.06-1.57 3.73l.63 2.05.35 2.53c-.25 2.35-.67 3.57-1.23 3.67-.91.16-1.69 2.02-2.36 5.59-.44.15-.63.47-.56.96.3.53.48.93.52 1.21-.45.08-.73 1.42-.83 4.03-1.53.26-2.69 1.91-3.49 4.93-.74.13-1.41 1.97-2.02 5.53-3.23.56-6.01 3.06-8.36 7.49.04.28-.17.46-.62.54-.17.03-.87 0-2.1-.07-.36.35-.79.57-1.3.66l.06.42c.73 1.89 1.11 2.98 1.15 3.26l.06.42c.08.56-.11.88-.56.96l-1.7.29c-.45.08-.74-.3-.85-1.15l-.68.12c-.81 1.29-2.12 2.67-3.95 4.14-7.07-.79-10.72-2.03-10.96-3.72-1.62-.8-3.57-1.47-5.85-2.01l-1.64.72a32.783 32.783 0 0 1-3.54-5.44c-2.95-.79-4.85-1.9-5.68-3.34l-.19-3.86c-.09-.63-1-1.34-2.73-2.12-.04-1.94-.14-3.51-.3-4.7-1.25-.65-1.95-1.53-2.11-2.66l.22-.9c-1.51-2.55-2.49-4.54-2.92-5.98-1.13.2-1.89-1.11-2.28-3.93-.25-2.62-.14-4.37.32-5.24l-.06-.42-1.09-2.84c-.27-1.97.38-3.09 1.97-3.37-.05-.35-.36-1.74-.93-4.16.25-4.87.82-8.28 1.71-10.24l-.93-4.16c.84-5.62 1.23-8.71 1.15-9.27l-.75-2.9c.15-.6.2-1.04.16-1.33-1.09-3.27-1.78-4.88-2.06-4.83l-.06-.42c.34-.06.62-.54.85-1.44-.03-.21-.69-.82-1.99-1.82l-.12-.84c-.11-.77 0-1.66.33-2.65-.14-.98-1.25-1.51-3.35-1.58l-.12-.84v-2.59c-1.66-6.05-3-8.99-4.02-8.82-.55-.19-1.71-1.87-3.48-5.02-.68-2.4-1.99-4.34-3.94-5.8l-.12-.85.22-.9c-1.48-.61-2.27-1.34-2.39-2.18l-1.3.66-1.76-.13.12.84.85 1.15c.2 1.48-.11 2.54-.95 3.19l-.34.06c-.34.06-.74-.3-1.19-1.09l.73-2.28-.63-2.05-1.02.18c.1.7-.74 3.01-2.52 6.92.12 3.37-.57 5.93-2.06 7.7-1.16 1.28-2.32 3.79-3.48 7.52-1.7.29-2.63 3.62-2.79 9.99-1.35 2.83-2.31 4.29-2.87 4.39l.12.85c.09.63.28 1.18.57 1.63.09.63-.68 1.78-2.31 3.43-.65 1.19-1.43 3.92-2.35 8.18l.46.79c-1.32 1.74-2.13 4.33-2.4 7.76-2.84 3.37-4.49 6.54-4.95 9.5-.45.08-1.28 1.66-2.47 4.75-.61.61-1.04 2.56-1.28 5.84-.23.04-.32.2-.28.48l.06.42.86 1.15.06.42c-1.29 1.16-2.25 2.62-2.87 4.39.08.56-.93 2.47-3.04 5.71.17 1.2-.49 3.18-1.96 5.96-.4 4.68-1.1 7.1-2.12 7.28-.57.1-1.28 1.66-2.13 4.69-1.02.18-1.67 2.16-1.96 5.96-.6.25-2.02 5.97-4.23 17.15l.76 5.49c-1.38 1.75-1.9 3.86-1.56 6.32-1.06.76-1.67 3.89-1.83 9.39-.68.12-1.16 2.51-1.44 7.16.46 0 .73.24.8.73l.18 1.27c-2.17 5.28-3.42 7.94-3.76 8-.84 1.44-1.57 3.73-2.18 6.86-.91.16-3.16 4-6.75 11.54-2.15.37-4.88 2.43-8.19 6.17l-1.14-.67c-.79.14-2.68.75-5.66 1.84l-7.09-.94c-.75.42-1.19.64-1.3.66-1.1.05-2.25-.76-3.47-2.42l-.68.12c.08.56-.11.88-.56.96l-.68.12c-.65-.1-2.07-1.16-4.26-3.15l-1.64.72c-1.07-1.04-2.18-3.15-3.32-6.34-.45.08-.72-.16-.8-.73l-.12-.84.51-1.38c-.97-.27-1.48-.61-1.54-1.03l-.2-6.45c-.37-1.02-.66-2.26-.87-3.74l1.47-1.98-.63-2.05-.06-.42c-.2-1.41-.05-2.87.43-4.4-.58-.83-.92-1.64-1.03-2.41-.17-1.2.26-3.14 1.28-5.84-.18-2.56.55-3.98 2.19-4.27-.06-.42.64-1.26 2.09-2.52.89-1.95 1.2-3.88.94-5.78-.3-.52-.48-.93-.52-1.21 1.99-.7 2.91-1.58 2.77-2.64-.58-.83-.92-1.64-1.03-2.41-.1-.7.3-1.2 1.18-1.5l1.02-.18c.58-3.34 1.55-6.39 2.91-9.15l-.06-.42-.63-2.05c2.06-5.25 3.55-8.68 4.49-10.28 1.07-.19 1.84-2.19 2.3-6.02l.62-.54c.49.2.85.28 1.08.25 1.79-6.36 3.81-10.17 6.07-11.42-.2-1.48.6-4.06 2.4-7.76-.04-.28 1.12-2.79 3.48-7.52.57-.1 1.15-1.78 1.74-5.05.96-.17 1.75-2.03 2.36-5.59.28-.05.9-1.45 1.85-4.21.91-.16 1.32-.52 1.24-1.08l-.53-3.8c-.04-.28.05-.44.28-.48-.58-.83-.92-1.64-1.03-2.41l-.12-.84c1.62-1.72 2.27-3.71 1.96-5.96 2.09-2.52 3.06-4.71 2.92-6.56 1.36-.24 2.43-1.72 3.21-4.44 2.81-4.81 4.07-8.34 3.75-10.59.5-.16.87-1.66 1.11-4.51.69-.48 1.45-2.48 2.3-6.02.51-3.83 1.62-5.9 3.32-6.19-.73-5.27.65-9.55 4.14-12.81-.3-.52-.48-.93-.52-1.21l.45-1.8-.63-2.05c1.47-2.77 2.14-4.62 2.02-5.53-.34.06-.74-.3-1.2-1.09l3.07-10.47c-.03-.21-.26-1.04-.69-2.47-.06-.42.61-2.27 2.02-5.53-.04-.28-.17-.4-.4-.36-.43-3.09.26-4.8 2.08-5.11.3-1.2.41-2.09.33-2.65-.34.06-.74-.3-1.2-1.09-.25-1.83.21-3.5 1.4-5l-.12-.84c-.09-.63-.28-1.18-.57-1.63.68-1.77 1-2.84.95-3.19l-.75-2.9c1.07-.19 1.5-3 1.27-8.43 1.54-2.28 2.17-4.41 1.9-6.38.62-.11.9-2.31.82-6.62.51-.09.75-.85.73-2.29-.57-2.42-.9-3.95-.98-4.58.9-3.54 1.34-6.21 1.33-8.01 1.17-1.57 1.6-3.52 1.28-5.84.63-1.76 1.45-3.35 2.47-4.75 1.26-5.98 2-8.99 2.23-9.03l2.1.07c1.07-5.66 2.51-8.65 4.33-8.96-.18-1.27.16-2.19 1.01-2.77l1.76.13c3.54-2.92 5.54-4.41 5.99-4.49Zm-38.67 295.8.68-.12.06.42-.68.12-.06-.42Zm.61-15.66.68-.12.06.42-.68.12-.06-.42Zm3.39-15.71c.46 0 .73.24.8.73.08.56-.11.88-.56.96s-.72-.16-.8-.73c-.02-.57.17-.89.56-.96Zm69.59-251.02.34-.06c.34-.06.74.3 1.19 1.09l.06.42c.08.56-.11.88-.56.96l-.68.12c-.34.06-.74-.3-1.2-1.09-.06-.42.22-.9.85-1.44Zm.7 5.06.34-.06c.51-.09.95.56 1.31 1.93l-.9 1.02c-.34.06-.87-.42-1.59-1.45-.06-.42.22-.9.85-1.44Zm7.2 14.31.68-.12.12.84c.08.56-.11.88-.56.96s-.72-.16-.8-.73c-.02-.57.17-.89.56-.96Zm27.94 50.92.46.79-.62.54-.46-.79.62-.54Zm34.56 73.54.34-.06c.46 0 .73.24.8.73.08.56-.11.88-.56.96l-.34.06c-.45.08-.72-.16-.8-.73-.02-.57.17-.89.56-.96Zm8.5-1.47.34-.06c.46 0 .73.24.8.73l-.62.54-.34.06-.18-1.27Zm38.49-78.82.68-.12c.46 0 .73.24.8.73l.12.85c.08.56-.11.88-.56.96l-.68.12c-.45.08-.72-.16-.8-.73l-.12-.85c-.02-.57.17-.89.56-.96Zm21.97 45.47.34-.06c.46 0 .73.24.8.73.08.56-.11.88-.56.96l-.34.06c-.45.08-.72-.16-.8-.73-.02-.57.16-.89.56-.96Zm6.09 18.83.46.78.06.42-1.02.18-.06-.42c-.02-.57.17-.89.56-.96Zm4.84-7.75c.46 0 .73.23.8.73.08.56-.11.88-.56.96s-.72-.16-.8-.73c-.02-.57.17-.89.56-.96Zm18.42 49.97.34-.06c.46 0 .73.24.8.73l.06.42c.08.56-.11.88-.56.96l-.34.06c-.45.08-.72-.16-.8-.73l-.06-.42c-.02-.57.17-.89.56-.96Zm-.48-5.97c.46 0 .73.24.8.73l.12.84-.68.12c-.45.08-.72-.16-.8-.73-.02-.57.17-.89.56-.96Zm15.09 28.5.68-.12c.46 0 .73.24.8.73l.06.42c.08.56-.11.88-.56.96l-.68.12c-.45.08-.72-.16-.8-.73l-.06-.42c-.02-.57.17-.89.56-.96Zm15.9 19.29.46.79.06.42-1.02.18-.06-.42c-.02-.57.16-.89.56-.96Zm32.23 46.72.34-.06.18 1.27-.34.06c-.45.08-.72-.16-.8-.73l.62-.54Zm5.13 6.89c.46 0 .73.24.8.73.08.56-.11.88-.56.96s-.72-.16-.8-.73c-.02-.57.17-.89.56-.96Z" fill="#f39200"></path>
            <path d="M275.54 62.99c3.82 2.51 5.32 5.6 4.5 9.28-.61 1.03-1.47 1.56-2.58 1.58l-1.72-1.03c-1.59-.74-2.73-2.73-3.44-5.96l.61-2.94c.1-.37.98-.68 2.64-.93Zm41.77 32.44c3.1 2.94 4.32 5.79 3.66 8.56-.66 2.77-2.08 3.54-4.26 2.31-2.98-2.37-4.11-5-3.38-7.89l.52-2.41c.33-.69 1.48-.88 3.45-.57Zm-8.95 71.58.41.18-.21 1.02c-.07.57-.41.75-1 .54l-.2-1.2c.19-.71.52-.88 1-.54Zm-2.03 13.51.72.52-.11.86c-.58-.25-.78-.71-.6-1.38Zm24.31-35.75c4.75 2.73 6.68 7.55 5.81 14.45-.82 3.68-3.54 4.57-8.17 2.68-3 4.44-5.54 6.08-7.63 4.94-.58.03-1.2-.13-1.87-.47-3.96-4.42-5.42-9.01-4.39-13.76 2.99-5.56 4.68-8.22 5.08-8l.41.18 3.73 2.68c2.51-3.03 4.85-3.93 7.03-2.69Zm2.11-39.23 1 .51c3.24 2.26 4.48 4.96 3.72 8.11l-.19 1.38c-.57 2.44-1.94 3.04-4.12 1.81l-1.72-1.03c-1.86-2.86-2.51-5.51-1.94-7.95.32-1.62 1.4-2.56 3.25-2.82Zm-9.67 80.1.52 1.9-.38 1.23c-.07.57-.59.86-1.54.86l-.26-.32c-.58-.25-.93-1.01-1.05-2.27l.19-1.38c.18-.66 1.01-.67 2.51-.01Zm-4.59 20.39c1.19 1.4 1.74 2.39 1.67 2.96l-.47 2.44c-.19.43-.88.73-2.06.9l-1.46-.71c-.66-.8-1.08-2.29-1.27-4.45.53-1.86 1.73-2.23 3.6-1.13Zm12.18-11.84 1.14.64c.35.25.75 1.17 1.21 2.76l-.47 2.44c-.07.57-1.89.77-5.45.6-.3 1.58-1.92 1.89-4.86.93-2.48-2.53-3.45-5.11-2.91-7.75.48-2.11 2.36-2.89 5.63-2.33.88 1.27 1.95 2.18 3.21 2.73l.43.54 2.08-.55Zm-25.81 57.78c.38-.44.76-.43 1.14.01.46-.59.48-1.11.07-1.57l1.77-.89c.7.82.29 3.3-1.23 7.46l-.59.72-.55-.73-.61-5Zm22.32-77.13.58.39c.36.21.66.89.88 2.06l-.21 1.02c-.07.57-.45.69-1.12.34l-1.14-.64c-.56-.48-.8-1-.72-1.57l.35-.89c0-.46.47-.7 1.38-.71Zm-4.5 39.43 1.72 1.03c.4.22.71.91.93 2.08l-.24 1.35c-.17.49-.85.79-2.06.91l-.88-.32c-.48-.35-.92-1.33-1.33-2.95.57-1.74 1.2-2.44 1.87-2.1Zm18.45-15.08.46.2c3.15 1.89 4.75 5.31 4.81 10.25l-.46 1.75c-.26 1.28-1.84 2.86-4.73 4.75l-2.71 3.13.26 3.32c-.25 1.24-1.4 1.99-3.44 2.25l-1.86-1.16c-3.25-5.37-4.84-8.34-4.76-8.91l.23-1.08c1.04-.33 2.59-.16 4.65.51.15-.72.41-1.19.77-1.4.24-1.06.32-4.17.25-9.36 1.54-4.38 3.72-5.79 6.53-4.23Zm7.51 6.49.42.12c.39.26.74 1.02 1.05 2.27l-.13.5c-.17.49-.71.73-1.62.75l-.31-.34c-.58-.25-.93-1.01-1.05-2.27l-.02-.36c.16-.44.71-.66 1.66-.67Zm-7.02 38.4c.36.21.62.94.78 2.22l-.39 1.91-1.26-.83c-.4-.22-.71-.91-.93-2.08l.13-.5c.17-.48.72-.73 1.67-.73Zm6.81-16.5.54.31c.48.35.7.81.66 1.4l-.15.56c-.18.66-.55.78-1.12.35l-.41-.18c-.48-.35-.68-.81-.6-1.38l.13-.5c.23-.59.55-.78.95-.56ZM345 249.39l2.13 1.21c1.16.65 1.53 3.27 1.11 7.86 4.09 12.97 6.37 19.63 6.85 19.98 1.22.54 2.54.86 3.96.97 5.31 3.17 7.23 7.97 5.76 14.42-2.13 4.77-5.06 6.08-8.79 3.94-4.49-3.97-6.3-7.98-5.41-12.05l1.87-6.42-5.68-18.57c-.15-1.74-1.48-4.08-4-7.04l.72-3.79c.05-.35.56-.52 1.5-.52Zm-1.56 15.39.41.18c.49.31.84 1.04 1.07 2.21l-.4.87c.03.47-.44.71-1.38.72l-.41-.18c-.48-.35-.83-1.08-1.07-2.21l.28-1.06c.05-.35.56-.52 1.5-.52Zm22.73-40.55.41.18c3.45 2.02 4.87 6.22 4.25 12.58-.73 3.34-3.88 4.19-9.44 2.54-.48-.35-1.25-1.15-2.32-2.41-1.11.02-2.04-.2-2.79-.67l-.72-.52c-2.46-1.31-3.4-4.16-2.81-8.54.56-2.68 3.06-3.3 7.5-1.86.47-2.07 2.44-2.5 5.92-1.3Zm-2.22-19.83c.49.59.7 1.17.62 1.74-.17.48-.54.6-1.12.34-.48-.35-.68-.81-.6-1.38.27-.58.63-.81 1.1-.7Zm27.83 12.76c.48.35.68.81.6 1.38-.08.57-.45.69-1.12.35-.49-.31-.69-.77-.6-1.38.27-.58.64-.69 1.12-.34Zm-5.92 79.52 1.72 1.03c.89 1.23 1.2 2.48.94 3.75-.79 1.28-1.81 1.53-3.05.75-.95-1.16-1.38-1.9-1.29-2.24l.55-2.96c.27-.58.64-.69 1.12-.35Zm5.98-1.28.26.32c.5.12.81.82.93 2.08l.02.36c-.18.66-.5.82-.98.47l-.95-.49c-.48-.35-.68-.81-.6-1.38l.21-1.02c.17-.48.54-.6 1.12-.34Zm.14 11.75c1.51.89 2.34 2.07 2.49 3.53l-.61 2.31c-.27.58-1.06.76-2.37.56-1.06-1.02-1.71-2.23-1.94-3.63l.34-1.94c.19-.43.89-.7 2.1-.82Zm5.66-8.93c3.18 3.06 4.4 6.04 3.68 8.92-.56 2.68-2.33 3.8-5.33 3.37-3.28-3.39-4.57-6.76-3.87-10.12 1.41-2.77 3.26-3.49 5.53-2.17Zm-1.27-4.45.72.52c.57.43.81.94.74 1.51l-.08.52c-.1.37-.61.57-1.52.59l-.46-.2c-.57-.43-.81-.96-.72-1.57l.38-.81c.09-.61.4-.8.95-.56Zm-1.09 19.84 1.67 1.01c1.88 2.64 2.62 4.81 2.2 6.53l-.26 1.42c-.16.44-.84.74-2.06.91l-2.54-1.39c-1.58-2.5-2.16-4.61-1.74-6.33.21-1.53 1.12-2.24 2.73-2.14Zm.69 13.11c.59.49.85 1.02.77 1.59-.27.58-.64.69-1.12.35-.48-.35-.68-.81-.6-1.38.27-.58.58-.77.95-.56Zm5.31-4.35 1.98 1.35c2.5 1.33 3.48 4.13 2.96 8.4l-.23 1.08.42.12 3.07.65c4.36 4.46 7.55 9.2 9.57 14.22 1.13 5.5 2.45 8.82 3.97 9.95 1.5.2 2.63.53 3.38 1 5.35 3.18 7.8 9.13 7.36 17.84-2.92 7.44-7.13 9.59-12.63 6.43-5.98-3.51-8.44-10.15-7.37-19.94.15-.72-1.84-4.38-5.98-10.98-3.01-9.3-4.42-15.04-4.22-17.23-5.03-2.81-7.1-6.11-6.21-9.89 1.03-1.87 2.33-2.87 3.93-3.01Zm6.45 4.92.41.18c.6.45.8.91.6 1.38l-.08.52c-.18.66-.5.82-.98.47l-.54-.31c-.48-.35-.68-.81-.6-1.38l.08-.52c.27-.58.64-.69 1.12-.34Zm14.9 6.54 1.26.83c.6.45.8.91.6 1.38l-.34 1.94c-.08.57-.45.69-1.12.35l-1.12-.7c-.36-.21-.72-.94-1.07-2.21l.4-.87c0-.46.47-.7 1.38-.71Zm14.53 20.01.41.18c.57.43.77.89.6 1.38l-.21 1.02c-.07.57-.45.68-1.12.34l-.41-.18c-.49-.31-.7-.75-.62-1.32l.23-1.08c.27-.58.64-.69 1.12-.34Zm-9.89 37.42c.57.43.77.89.6 1.38-.07.57-.39.76-.95.56-.48-.35-.68-.81-.6-1.38.27-.58.58-.77.95-.56Z" fill="#f39200"></path>
            <path d="M197.01 121.05c.67 5.23-.46 8.46-3.38 9.68-1.05-.04-1.92-.62-2.61-1.72l-.37-2.3c-.48-2.01.14-4.26 1.84-6.77l2.3-1.02c.31-.11 1.04.6 2.22 2.13Zm4.03 60.02c-.05 4.74-1.19 7.56-3.41 8.44-2.23.88-3.6-.12-4.11-2.99-.25-4.31.8-6.91 3.14-7.78l1.91-.82c.66-.05 1.48 1 2.48 3.15Zm-52.58 30.78.13.51-.8.35c-.42.24-.74 0-.96-.7l.67-.86c.58-.2.9.03.96.7Zm-10.14 5.46.09 1.01-.63.36c-.18-.72 0-1.18.54-1.37Zm38.33 4.57c1.09 6.29-.91 10.91-5.98 13.87-2.92 1.22-5.16-1.02-6.73-6.72-4.74-.54-7.37-2.19-7.89-4.92-.37-.57-.64-1.28-.83-2.14.51-6.44 2.64-10.46 6.39-12.06 5.47-.08 8.26.13 8.36.66l.13.51.51 5.24c3.52.84 5.54 2.7 6.05 5.57Zm27.12-19.68.27 1.29c.48 4.51-.54 7.26-3.07 8.25l-1.02.57c-1.95.78-3.19-.26-3.7-3.14l-.37-2.3c.75-3.46 2.1-5.59 4.05-6.37 1.26-.59 2.54-.02 3.83 1.7ZM145.14 237l-.93 1.58-1.04.3c-.42.24-.92-.12-1.5-1.07l.06-.44c-.18-.72.1-1.49.86-2.32l1.02-.57c.54-.19 1.06.65 1.53 2.52Zm-16.22 6.72c-.2 1.97-.51 3.08-.94 3.32l-1.89.88c-.4.05-1.01-.48-1.85-1.57l-.42-1.87c.13-1.11.85-2.36 2.16-3.75 1.54-.5 2.52.5 2.94 2.99Zm15.21 5.67.27 1.5c.05.49-.31 1.41-1.08 2.75l-1.89.88c-.42.24-1.66-1.47-3.71-5.15-1.23.57-2.42-.88-3.57-4.37.15-3.9 1.27-6.31 3.33-7.23 1.68-.69 3.34.77 4.96 4.36-.3 1.59-.25 3.17.15 4.74l-.09.73 1.63 1.79Zm-53.75 6.17c.52.14.75.52.68 1.15.67.14 1.03-.13 1.08-.8l1.67 1.29c-.11 1.15-2 2.12-5.66 2.91l-.83-.19.15-.96 2.92-3.4Zm64.37-20.43.09.8c.09.48-.19 1.16-.82 2.03l-.8.35c-.42.24-.72-.07-.91-.93l-.27-1.5c-.02-.82.17-1.36.59-1.6l.8-.14c.31-.25.75.08 1.31.99Zm-28.7 17.39.37 2.3c.1.52-.17 1.22-.8 2.09l-1.04.51c-.42.1-1.04-.42-1.85-1.57l-.33-1.07c-.06-.67.32-1.66 1.13-2.97 1.5-.39 2.34-.16 2.52.71Zm21.15 10.17.15.57c.67 4.21-.61 7.72-3.83 10.53l-1.43.51c-1 .45-3-.26-6-2.12l-3.71-.98-2.02 2.11c-.97.44-2.16-.3-3.57-2.21l-.36-2.51c1.56-6.25 2.55-9.5 2.97-9.74l.85-.37c.85.86 1.68 2.51 2.49 4.96.57-.25 1.03-.25 1.39 0 .84-.34 2.95-1.99 6.31-4.95 3.82-.89 6.07.52 6.76 4.21Zm.29 11.16.18.49c.06.53-.22 1.31-.86 2.32l-.41.14c-.42.1-.91-.3-1.48-1.21l.04-.5c-.18-.72.1-1.5.86-2.32l.22-.22c.39-.09.87.34 1.45 1.3Zm-29.55 14.29c.09.48-.24 1.15-.99 2.02l-1.5.67-.22-1.73c-.1-.52.17-1.22.8-2.09l.41-.14c.42-.1.92.32 1.5 1.28Zm15.01-2.33.13.72c.06.67-.11 1.15-.52 1.44l-.46.16c-.54.19-.85-.12-.91-.93l-.13-.51c-.06-.67.12-1.13.54-1.37l.41-.14c.53-.09.85.12.94.64Zm-16.45 8.67.5 2.81c.28 1.52-1.22 3.35-4.5 5.49-6.06 11.32-9.06 17.32-8.99 17.99.39 1.53.98 3.04 1.77 4.52 1.15 7.1-.85 11.7-6 13.8-4.44.51-7.09-1.71-7.94-6.64-.12-6.72 1.42-10.77 4.64-12.14l5.36-1.69 8.77-16.03c1.05-1.11 1.79-3.76 2.2-7.94l2.93-1.39c.26-.14.68.27 1.26 1.22Zm-11.09 6.98.13.51c.09.66-.17 1.43-.8 2.3l-.81.08c-.3.29-.74-.04-1.31-.99l-.13-.51c-.06-.67.21-1.44.8-2.3l.87-.31c.26-.14.68.27 1.26 1.22Zm40.53.32.13.51c.77 4.6-1.13 8.35-5.7 11.26-2.65 1.12-5.12-1.57-7.41-8.08-.06-.67 0-1.9.17-3.68-.69-1.1-1.11-2.16-1.26-3.17l-.09-1.01c-.63-3.21.67-5.73 3.91-7.57 2.1-.93 4.03 1.24 5.79 6.5 1.65-.68 3.13 1.07 4.46 5.23Zm11.71-13.25c-.09.82-.34 1.35-.76 1.59-.42.1-.72-.21-.91-.93-.06-.67.12-1.13.54-1.37.54-.05.92.18 1.13.71Zm8.52 35.07c.06.67-.12 1.13-.54 1.37-.42.24-.72-.07-.91-.93-.09-.66.09-1.12.54-1.37.54-.05.85.26.91.93Zm-55.97 38.24.37 2.3c-.27 1.58-.9 2.59-1.9 3.04-1.32-.09-2.1-.97-2.35-2.64.19-1.6.42-2.44.69-2.54l2.28-1.09c.54-.05.85.26.91.93Zm4.47 5.3-.06.44c.22.57-.05 1.27-.8 2.09l-.22.22c-.54.19-.85-.05-.91-.72l-.26-1.23c-.06-.67.12-1.13.54-1.37l.8-.35c.42-.1.72.21.91.93Zm-7.65 6.67c.33 2.01.06 3.5-.81 4.46l-1.89.67c-.54.05-1.15-.64-1.81-2.07.03-1.63.43-2.96 1.21-3.97l1.48-.73c.4-.05 1 .5 1.81 1.65Zm9.32.73c-.09 4.9-1.3 7.78-3.64 8.66-2.1.93-3.92-.23-5.46-3.49.24-5.18 1.67-8.35 4.31-9.52 2.68-.12 4.28 1.34 4.79 4.35Zm2.16-3.75.09 1.01c.06.81-.12 1.34-.54 1.58l-.39.21c-.31.11-.74-.29-1.31-1.2l-.15-.57c-.06-.81.14-1.35.59-1.6l.76-.06c.46-.26.77-.04.94.64Zm-13.73 9.94.35 2.24c-.59 3.36-1.58 5.31-2.96 5.85l-1.09.52c-.39.09-1-.43-1.85-1.57l-.63-3.32c.69-2.98 1.72-4.73 3.11-5.27 1.14-.64 2.16-.12 3.07 1.55Zm-8.21 7.98c.04.87-.16 1.42-.58 1.66-.54.05-.85-.26-.91-.93-.06-.67.12-1.13.54-1.37.54-.05.86.16.94.64Zm6.09 2.92.31 2.74c.65 3.25-.6 5.8-3.73 7.65l-.85.37.18.49 1.44 3.45c-.29 6.87-1.47 12.71-3.54 17.52-2.94 4.19-4.32 7.37-4.14 9.53.79 1.62 1.25 2.94 1.4 3.95 1.16 7.14-1.27 12.91-7.27 17.31-6.67 1.21-10.65-1.84-11.92-9.13-1.33-7.96 1.55-14.13 8.64-18.49.57-.25 1.76-4.29 3.59-12.11 4.29-8.19 7.22-12.8 8.78-13.81-1.21-6.62-.3-10.53 2.74-11.74 1.86 0 3.31.75 4.37 2.28Zm.68 9.21.13.51c.07.85-.11 1.31-.54 1.37l-.39.21c-.54.19-.85-.05-.91-.72l-.13-.72c-.06-.67.12-1.13.54-1.37l.39-.21c.54-.05.85.26.91.93Zm4.76 18.61.22 1.73c.07.85-.11 1.31-.54 1.37l-1.48.73c-.42.24-.72-.07-.91-.93l-.22-1.52c-.09-.48.18-1.25.8-2.3l.82-.08c.31-.25.75.08 1.31.99Zm-4.34 25.73.13.51c.06.81-.12 1.27-.54 1.37l-.8.35c-.42.24-.72-.07-.91-.93l-.13-.51c-.09-.66.07-1.11.49-1.35l.85-.37c.54-.05.85.26.91.93ZM73.1 456.03c.06.81-.12 1.27-.54 1.37-.42.24-.74.03-.94-.64-.06-.67.12-1.13.54-1.37.54-.05.86.16.94.64Z" fill="#f39200"></path>
            <path d="M40.97 158.56c0 1.16-.04 2.32 0 3.47.17 4.57.12 9.18.61 13.72.8 7.32 1.88 14.61 3 21.89 1.94 12.53 5.39 24.69 9.58 36.62 3.72 10.58 7.8 21.04 11.84 31.51 4.6 11.9 9.63 23.61 15.39 34.99 4.92 9.73 10.54 19.07 16.56 28.16 4.29 6.48 8.5 13.03 12.96 19.39 5.67 8.1 11.4 16.17 17.42 24.02 4.43 5.77 9.31 11.19 14.09 16.69 3.55 4.08 7.16 8.11 10.9 12.02 10.57 11.04 21.13 22.07 31.86 32.96 5.47 5.56 11.21 10.85 16.95 16.14 4.71 4.35 9.44 8.68 14.42 12.71 5.91 4.79 12.1 9.24 18.16 13.84.06.05.08.16.2.4-2.78-.7-5.49-1.24-8.1-2.07-6.74-2.15-13.49-4.26-20.12-6.71-8.37-3.09-16.32-7.13-24.13-11.44-8.56-4.73-17.31-9.15-25.67-14.21a947.71 947.71 0 0 1-35.17-22.33c-9.52-6.34-18.78-13.08-28-19.86-5.65-4.16-11.09-8.62-16.49-13.12-5.07-4.22-10.16-8.45-14.88-13.05-4.98-4.85-9.67-10.01-14.22-15.26-4.08-4.72-8-9.61-11.59-14.71-3.5-4.97-6.73-10.18-9.64-15.51-3.68-6.74-7.13-13.62-10.3-20.6-3.66-8.05-6.91-16.29-8.81-24.97-.88-4.01-1.45-8.1-1.87-12.18-.33-3.21-.42-6.48-.28-9.71.18-4.27.63-8.53 1.07-12.78.39-3.73.83-7.47 1.42-11.17.49-3.1 1.17-6.17 1.86-9.24 1.96-8.65 5.09-16.92 8.46-25.1 2.19-5.31 4.56-10.56 7.05-15.74 3.21-6.68 6.55-13.29 9.95-19.88 1.59-3.08 3.44-6.02 5.18-9.02l.37.14Zm24.28 203.07.22-.23c-.04-.12-.05-.28-.13-.37-5.08-5.42-9.3-11.5-13.19-17.78-3.49-5.63-6.61-11.5-9.79-17.33-4.84-8.88-9.04-18.06-12.62-27.52-3.13-8.28-5.65-16.74-7.33-25.43-.83-4.31-1.43-8.69-1.73-13.06-.29-4.11-.15-8.27-.03-12.4.06-2.14.48-4.27.75-6.41.3-2.41.6-4.81.89-7.22.19-1.55.43-3.1.51-4.65.09-1.6.02-3.2.02-4.8-.51.26-.69.52-.8.81-.53 1.4-1.03 2.82-1.58 4.22-3.43 8.75-4.53 17.89-4.54 27.21 0 2.49.05 5 .29 7.48.37 3.88.67 7.79 1.45 11.59 2.07 10.09 5.59 19.73 10.01 29 3.31 6.93 6.81 13.79 10.66 20.42 3.78 6.53 7.88 12.9 12.26 19.04 3.89 5.46 8.35 10.52 12.6 15.71.56.68 1.38 1.14 2.07 1.71Zm9.1 5.49c-2.17-.36-4.3-1.19-6.59-.56.73 1.6 1.84 1.7 6.59.56Zm.8 3.16.02-.44c-.83-.15-1.66-.32-2.49-.43-.89-.12-1.26.46-.99 1.16.14.36.9.79 1.28.71.77-.16 1.46-.64 2.19-.99Z" fill="url(#svgcid--fhtdcy-m3tmbl)"></path>
            <path d="M171.98 14.56c-1.32 2.05-2.67 4.09-3.95 6.16-6.69 10.8-13.41 21.58-20.02 32.43-4.19 6.88-8.41 13.77-12.23 20.86-4.55 8.44-8.91 17.01-12.92 25.72-3.99 8.65-7.6 17.49-11.09 26.36-3.44 8.74-6.66 17.57-9.71 26.46-3.03 8.83-5.9 17.72-8.48 26.69-1.62 5.64-2.74 11.45-3.78 17.24-.9 5-1.42 10.06-1.99 15.11-.47 4.16-.78 8.34-1.13 12.51-.24 2.94-.43 5.88-.66 9.2-1.34-3.54-2.55-6.76-3.78-9.97-2.59-6.77-5.12-13.57-7.82-20.3-3.4-8.48-6.74-16.97-8.57-25.95-1.22-5.99-2.42-11.99-3.39-18.03-.76-4.79-1.29-9.64-1.67-14.48-.31-3.96-.47-7.97-.26-11.94.35-6.89 2.55-13.22 6.62-18.84 4.08-5.64 8.06-11.36 12.24-16.92 3.49-4.65 7.12-9.21 10.87-13.66 3.68-4.37 7.54-8.6 11.4-12.82 2.63-2.87 5.3-5.73 8.13-8.4 4.9-4.61 9.87-9.14 14.95-13.56 4.95-4.31 10.05-8.46 15.11-12.65 6.91-5.72 14.02-11.18 21.61-15.97 3.28-2.08 6.81-3.76 10.23-5.62l.3.37ZM93.24 95.53l-.49-.32-8.15 9.23c-4.33 4.89-8.54 9.89-11.87 15.54-2.76 4.7-4.54 9.74-4.74 15.27-.16 4.36.64 8.6 1.48 12.83 1.38 6.99 2.81 13.97 4.42 20.91 1.31 5.63 2.9 11.2 4.46 16.78.32 1.13.72 2.37 2.09 2.9.03-.2.08-.34.05-.46-1-4.11-2.11-8.2-2.99-12.34-.58-2.72-.81-5.52-1.22-8.28-.52-3.43-1.08-6.86-1.59-10.3-.51-3.44-.92-6.9-1.47-10.33-.66-4.11-1.1-8.23-.46-12.37.93-6.08 3.12-11.72 6.43-16.9 3.91-6.12 7.94-12.17 11.88-18.28.8-1.24 1.45-2.58 2.17-3.88Zm35.34-36.87-1.56-1.89-1.57 1.45c.62.53 1.19 1.13 1.88 1.54.12.07.69-.59 1.25-1.1Z" fill="url(#svgcid-5kffu3-lx0sjj)"></path>
            <path d="M46.01 158.87c2.48 3.47 4.6 6.69 6.99 9.69 1.27 1.59 2.81 3.41 4.61 4.02 2.14.73 2.68 1.87 3.03 3.78 1.47 7.82 4.28 15.25 6.7 22.81 2.94 9.2 5.13 18.65 7.56 28.01 2.69 10.35 6.25 20.4 10.05 30.39 3.96 10.42 8.05 20.79 13.22 30.66 4.09 7.81 8.62 15.4 13.06 23.02 3.17 5.44 6.36 10.88 9.81 16.14 4.77 7.27 9.7 14.44 14.76 21.51 3.76 5.26 7.77 10.36 11.79 15.43 3.29 4.14 6.67 8.21 10.18 12.15 5.16 5.8 10.36 11.57 15.76 17.15 8.38 8.64 16.9 17.15 25.44 25.63 3.51 3.49 7.11 6.9 10.86 10.13 5.86 5.05 11.69 10.14 17.87 14.78 5.43 4.07 11.31 7.53 16.99 11.26.11.08.2.19.27.24-2.69 6.72-4.39 13.58-3.65 21.11-2.57-1.79-5.12-3.42-7.51-5.27-3.85-2.97-7.75-5.91-11.37-9.16-8.64-7.77-17.23-15.6-25.64-23.62-7.89-7.53-15.56-15.29-23.25-23.03-4.15-4.17-8.21-8.42-12.18-12.76-5.44-5.94-10.82-11.93-16.09-18.03-4.67-5.41-9.26-10.9-13.68-16.51-5.11-6.48-10.1-13.07-14.97-19.73-4.46-6.11-8.86-12.27-12.99-18.61-4.56-7.01-8.99-14.12-13.08-21.42-3.89-6.94-7.54-14.03-10.78-21.29-4.29-9.62-8.14-19.43-12.04-29.22-2.46-6.17-4.9-12.36-6.91-18.68-2.85-8.97-5.44-18.02-7.85-27.12-1.49-5.63-2.62-11.37-3.59-17.12-.9-5.33-1.43-10.72-2-16.1-.4-3.84-.59-7.71-.86-11.56-.19-2.76-.34-5.52-.53-8.68Zm188.33 295-.12-.5c-.18-.01-.38-.07-.55-.03-3.51.75-7.02 1.49-10.51 2.3-.3.07-.49.62-.73.94.41.21.83.62 1.23.59.8-.05 1.61-.26 2.38-.52 2.77-.91 5.53-1.86 8.3-2.79Zm-17.24-6.06c.99-.09 1.81-.16 2.92-.26-1.83-1.11-2.54-1.05-2.92.26Z" fill="#36a9e1"></path>
            <path d="M175.24 17.53c.86 3.52 1.79 7.03 2.56 10.57.66 3.03 1.34 6.08 1.62 9.15.31 3.47.2 6.87-1.83 10.09-4.08 6.47-8.04 13.02-11.7 19.73-5.03 9.24-9.9 18.57-14.51 28.02-4.19 8.58-8.07 17.31-11.85 26.08-3.7 8.59-7.39 17.21-10.56 26.01-3.3 9.17-6.25 18.48-8.85 27.87-2.15 7.77-3.63 15.74-5.27 23.64-1.23 5.9-2.31 11.84-3.31 17.79-.55 3.26-.9 6.55-1.15 9.85-.46 6.21-.85 12.44-1.14 18.66-.24 5.22.39 10.37 1.65 15.44.04.17 0 .37 0 .9-3.86-2.91-7.5-5.7-11.19-8.41-2.17-1.59-4.42-3.09-6.68-4.56-.75-.49-1.11-.99-1.11-1.95 0-2.87-.33-5.75-.21-8.6.23-5.12.68-10.22 1.07-15.33.26-3.44.48-6.89.87-10.32.46-4 .98-8.01 1.66-11.98.92-5.35 1.79-10.73 3.1-15.99 1.94-7.78 4.02-15.54 6.45-23.17 3.2-10.07 6.68-20.07 10.28-30.01 2.37-6.56 4.95-13.06 7.82-19.41 4.47-9.87 9.1-19.68 14-29.34 3.64-7.17 7.77-14.1 11.75-21.09 3.22-5.64 6.51-11.25 9.84-16.82 4.08-6.84 8.24-13.63 12.37-20.44 1.3-2.14 2.6-4.28 3.91-6.42l.4.05Zm-67.87 230.53.39-.47c-3.49-3.78-6.97-7.58-10.51-11.32-.27-.28-.94-.18-1.43-.26.03.45-.13 1.08.11 1.33 2.36 2.5 4.73 5 7.21 7.38 1.29 1.24 2.81 2.24 4.22 3.34Zm-.49-12.49c.06-.25.13-.37.1-.42-2.21-3.32-4.43-6.64-6.68-9.93-.14-.21-.76-.33-.98-.2-.81.48-.84 1.18-.37 1.99 1.65 2.87 3.95 5.16 6.32 7.41.46.44 1.05.75 1.63 1.15Zm-.54-9.38.47-.46c-1.85-2.47-3.68-4.94-5.55-7.39-.15-.2-.52-.22-.78-.33-.12.31-.34.63-.32.93.02.28.26.58.46.81 1.9 2.15 3.81 4.29 5.72 6.43Zm.24-12.07-1.43-3.3c-.77 1.06-.39 2.01 1.43 3.3Z" fill="#36a9e1"></path>
            <path d="M243.04 482.06c-.56-1.28-1.87-1.01-2.77-1.06-5.53-.26-10.9-1.36-16.17-2.9-6.56-1.92-13.1-3.92-19.55-6.18-9.29-3.26-18.11-7.63-26.74-12.35-7.48-4.08-14.98-8.12-22.33-12.42-8.29-4.85-16.52-9.81-24.57-15.04-9.79-6.35-19.45-12.91-28.99-19.62-6.68-4.69-13.14-9.7-19.58-14.72-5.18-4.04-10.31-8.17-15.25-12.5-4.93-4.33-9.76-8.8-14.3-13.53-4.42-4.6-8.49-9.56-12.6-14.46-6.86-8.17-12.66-17.07-17.79-26.42-5.93-10.8-11.12-21.92-15.5-33.44-2.55-6.73-4.5-13.6-5.97-20.61-.39-1.88-.56-3.82-.64-5.75-.17-4.02-.39-8.06-.25-12.08.15-4.26.61-8.52 1.08-12.76.44-3.95.92-7.92 1.69-11.81.96-4.91 1.97-9.83 3.41-14.62 3.28-10.9 7.58-21.43 12.62-31.62 4.66-9.4 9.63-18.65 14.63-27.88 1.67-3.08 3.72-5.96 6.52-8.27 1.48-1.23 4.51-.6 5.57.46 1.47 1.46 2.91 2.97 4.28 4.53 2.55 2.92 5.03 5.9 7.54 8.84.38.45.81.86 1.19 1.26-.67-4.85-1.35-9.67-2.01-14.49-.84-6.18-1.25-12.4-1.12-18.64.17-7.97 2.05-15.39 6.75-21.97 5.49-7.67 10.83-15.45 16.45-23.02 3.35-4.5 6.98-8.82 10.73-12.99 5.41-6.03 10.91-11.99 16.62-17.72 4.07-4.08 8.54-7.78 12.88-11.58 3.73-3.27 7.46-6.54 11.34-9.63 6.47-5.15 13.03-10.18 19.59-15.21 5.41-4.14 11.13-7.83 17.37-10.6 2.67-1.19 5.57-1.92 8.41-2.67 1.29-.34 1.88.88 2.17 1.88 1.5 5.19 3.07 10.36 4.29 15.61.89 3.82 1.42 7.74 1.82 11.64.24 2.34.05 4.75-.19 7.11-.28 2.72-2.32 4.63-3.61 6.87-2.68 4.64-5.59 9.15-8.13 13.86-4.39 8.12-8.74 16.27-12.81 24.55-4.44 9.03-8.66 18.18-12.78 27.36-3.54 7.86-7.04 15.75-10.14 23.8-3.31 8.6-6.43 17.29-9.05 26.12-2.71 9.12-4.84 18.42-6.96 27.71-1.15 5.02-1.77 10.17-2.6 15.26-.67 4.16-1.33 8.32-1.9 12.49-.38 2.73-.61 5.48-.88 8.22-.38 3.85-.9 7.69-1.05 11.54-.19 4.9-.24 9.81-.04 14.7.15 3.87.77 7.72 1.22 11.96-1.18-.51-2.37-.83-3.34-1.48-4.29-2.89-8.58-5.78-12.74-8.85-2.37-1.75-4.46-3.88-6.74-5.77-.95-.78-2.02-1.42-3.09-2.04-1.22-.72-1.86-1.63-2.18-3.11-.39-1.84-1.35-3.56-2.08-5.32-.59-1.42-1.2-2.84-2.05-4.16.42 1.22.79 2.47 1.27 3.67 2.59 6.61 5.02 13.3 7.85 19.81 3.68 8.46 7.41 16.91 11.62 25.11 3.92 7.64 8.39 15 12.79 22.38 4.76 7.97 9.55 15.94 14.68 23.69 4.5 6.8 9.41 13.32 14.26 19.88 3.19 4.31 6.51 8.53 9.91 12.69 2.95 3.6 6.03 7.09 9.14 10.56 3.8 4.24 7.63 8.45 11.55 12.57 3.77 3.96 7.71 7.76 11.52 11.67 5.59 5.73 11.03 11.63 16.75 17.23 4.59 4.49 9.51 8.63 14.26 12.96 7.22 6.59 15.21 12.17 23.01 18 2.72 2.03 5.38 4.14 8.03 6.26.31.25.42.79.57 1.21.15.42.22.86.33 1.3v.84c-.09.14-.23.26-.27.41-.54 2.49-1.1 4.98-1.59 7.48-.71 3.65-1.36 7.3-2.06 10.95-.33 1.74-.15 3.7-1.94 4.87h-1.39ZM40.97 158.56l-.37-.14c-1.73 3-3.59 5.94-5.18 9.02-3.4 6.58-6.75 13.2-9.95 19.88-2.49 5.18-4.86 10.43-7.05 15.74-3.37 8.17-6.49 16.44-8.46 25.1-.69 3.06-1.37 6.14-1.86 9.24-.59 3.71-1.03 7.44-1.42 11.17-.44 4.25-.89 8.51-1.07 12.78-.14 3.23-.05 6.5.28 9.71.42 4.08.99 8.17 1.87 12.18 1.9 8.67 5.15 16.92 8.81 24.97 3.18 6.99 6.62 13.87 10.3 20.6 2.92 5.34 6.14 10.54 9.64 15.51 3.59 5.1 7.52 9.99 11.59 14.71 4.54 5.26 9.24 10.42 14.22 15.26 4.72 4.6 9.81 8.83 14.88 13.05 5.4 4.49 10.83 8.96 16.49 13.12 9.22 6.78 18.48 13.52 28 19.86a974.658 974.658 0 0 0 35.17 22.33c8.36 5.06 17.11 9.48 25.67 14.21 7.81 4.31 15.76 8.35 24.13 11.44 6.63 2.45 13.39 4.56 20.12 6.71 2.61.84 5.32 1.37 8.1 2.07-.12-.25-.14-.36-.2-.4-6.06-4.6-12.25-9.05-18.16-13.84-4.98-4.03-9.71-8.37-14.42-12.71-5.73-5.29-11.47-10.59-16.95-16.14-10.72-10.88-21.29-21.92-31.86-32.96-3.74-3.91-7.35-7.94-10.9-12.02-4.78-5.49-9.66-10.92-14.09-16.69-6.02-7.84-11.74-15.92-17.42-24.02-4.46-6.37-8.67-12.91-12.96-19.39-6.02-9.09-11.63-18.43-16.56-28.16-5.76-11.38-10.8-23.1-15.39-34.99-4.04-10.47-8.12-20.93-11.84-31.51-4.19-11.93-7.64-24.09-9.58-36.62-1.13-7.28-2.2-14.57-3-21.89-.5-4.54-.44-9.14-.61-13.72-.04-1.16 0-2.31 0-3.47Zm131.01-144-.3-.37c-3.42 1.86-6.95 3.55-10.23 5.62-7.58 4.79-14.7 10.25-21.61 15.97-5.06 4.19-10.16 8.33-15.11 12.65a532.68 532.68 0 0 0-14.95 13.56c-2.84 2.67-5.5 5.52-8.13 8.4-3.86 4.22-7.72 8.44-11.4 12.82-3.74 4.45-7.37 9.01-10.87 13.66-4.18 5.56-8.16 11.28-12.24 16.92-4.07 5.63-6.27 11.96-6.62 18.84-.2 3.97-.04 7.97.26 11.94.37 4.84.9 9.68 1.67 14.48.96 6.04 2.16 12.04 3.39 18.03 1.84 8.98 5.18 17.47 8.57 25.95 2.7 6.73 5.22 13.53 7.82 20.3 1.23 3.21 2.44 6.43 3.78 9.97.24-3.32.42-6.26.66-9.2.35-4.17.66-8.35 1.13-12.51.57-5.05 1.09-10.12 1.99-15.11 1.04-5.79 2.16-11.59 3.78-17.24 2.58-8.97 5.45-17.86 8.48-26.69 3.05-8.89 6.27-17.72 9.71-26.46 3.49-8.87 7.1-17.71 11.09-26.36 4.01-8.71 8.37-17.27 12.92-25.72 3.82-7.09 8.04-13.97 12.23-20.86 6.61-10.85 13.33-21.63 20.02-32.43 1.28-2.07 2.63-4.11 3.95-6.16ZM46.01 158.87c.19 3.16.34 5.92.53 8.68.26 3.86.45 7.72.86 11.56.56 5.38 1.1 10.77 2 16.1.97 5.75 2.1 11.49 3.59 17.12 2.41 9.09 5 18.15 7.85 27.12 2.01 6.32 4.45 12.51 6.91 18.68 3.9 9.79 7.75 19.6 12.04 29.22 3.24 7.26 6.89 14.36 10.78 21.29 4.09 7.29 8.52 14.41 13.08 21.42 4.12 6.34 8.52 12.51 12.99 18.61 4.87 6.67 9.86 13.25 14.97 19.73 4.43 5.61 9.01 11.1 13.68 16.51 5.27 6.09 10.65 12.09 16.09 18.03 3.97 4.34 8.03 8.59 12.18 12.76 7.69 7.73 15.36 15.5 23.25 23.03 8.41 8.02 17 15.85 25.64 23.62 3.61 3.25 7.51 6.19 11.37 9.16 2.39 1.84 4.94 3.47 7.51 5.27-.74-7.53.96-14.39 3.65-21.11-.06-.06-.15-.17-.27-.24-5.68-3.73-11.56-7.19-16.99-11.26-6.18-4.63-12.02-9.73-17.87-14.78-3.75-3.23-7.35-6.64-10.86-10.13-8.54-8.49-17.06-16.99-25.44-25.63-5.4-5.57-10.6-11.35-15.76-17.15-3.51-3.95-6.9-8.02-10.18-12.15-4.03-5.07-8.03-10.17-11.79-15.43-5.06-7.07-9.99-14.25-14.76-21.51-3.45-5.26-6.64-10.7-9.81-16.14-4.44-7.62-8.97-15.21-13.06-23.02-5.17-9.87-9.25-20.24-13.22-30.66-3.8-9.99-7.36-20.04-10.05-30.39-2.43-9.36-4.62-18.81-7.56-28.01-2.41-7.56-5.23-14.98-6.7-22.81-.36-1.91-.89-3.04-3.03-3.78-1.8-.62-3.34-2.43-4.61-4.02-2.39-3-4.51-6.21-6.99-9.69ZM175.24 17.53l-.4-.05c-1.3 2.14-2.61 4.28-3.91 6.42-4.13 6.81-8.29 13.6-12.37 20.44-3.33 5.58-6.62 11.18-9.84 16.82-3.99 6.99-8.11 13.92-11.75 21.09-4.9 9.66-9.52 19.47-14 29.34-2.88 6.35-5.45 12.85-7.82 19.41-3.6 9.94-7.07 19.93-10.28 30.01-2.43 7.64-4.51 15.39-6.45 23.17-1.31 5.26-2.18 10.64-3.1 15.99-.68 3.97-1.21 7.97-1.66 11.98-.39 3.43-.61 6.88-.87 10.32-.39 5.11-.84 10.22-1.07 15.33-.13 2.86.21 5.74.21 8.6 0 .96.35 1.46 1.11 1.95 2.26 1.47 4.51 2.97 6.68 4.56 3.7 2.71 7.34 5.51 11.19 8.41 0-.54.04-.73 0-.9-1.26-5.07-1.89-10.22-1.65-15.44.29-6.22.67-12.45 1.14-18.66.24-3.29.6-6.59 1.15-9.85 1-5.95 2.08-11.88 3.31-17.79 1.64-7.91 3.12-15.87 5.27-23.64 2.6-9.39 5.54-18.71 8.85-27.87 3.17-8.8 6.86-17.42 10.56-26.01 3.78-8.77 7.66-17.51 11.85-26.08 4.61-9.45 9.49-18.78 14.51-28.02 3.66-6.71 7.62-13.26 11.7-19.73 2.03-3.22 2.13-6.62 1.83-10.09-.27-3.07-.96-6.12-1.62-9.15-.77-3.54-1.7-7.05-2.56-10.57Z"></path>
            <path d="M65.25 361.63c-.7-.56-1.52-1.03-2.07-1.71-4.25-5.2-8.7-10.26-12.6-15.71-4.38-6.14-8.48-12.52-12.26-19.04-3.85-6.64-7.36-13.5-10.66-20.42-4.42-9.27-7.95-18.91-10.01-29-.78-3.8-1.08-7.71-1.45-11.59-.24-2.48-.29-4.99-.29-7.48.01-9.32 1.12-18.46 4.54-27.21.55-1.4 1.04-2.82 1.58-4.22.11-.29.29-.55.8-.81 0 1.6.07 3.21-.02 4.8-.09 1.55-.33 3.1-.51 4.65-.29 2.41-.59 4.81-.89 7.22-.26 2.14-.68 4.27-.75 6.41-.12 4.13-.26 8.28.03 12.4.31 4.38.9 8.76 1.73 13.06 1.68 8.69 4.2 17.15 7.33 25.43 3.58 9.47 7.78 18.64 12.62 27.52 3.17 5.83 6.3 11.69 9.79 17.33 3.89 6.28 8.11 12.37 13.19 17.78.08.09.09.24.13.37l-.22.23Z" fill="#36a9e1"></path>
            <path d="M74.35 367.12c-4.76 1.14-5.86 1.04-6.59-.56 2.3-.62 4.43.21 6.59.56Z" fill="#36a9e1"></path>
            <path d="M75.15 370.27c-.73.35-1.42.83-2.19.99-.38.08-1.14-.34-1.28-.71-.27-.71.1-1.28.99-1.16.84.11 1.66.29 2.49.43l-.02.44Z" fill="#36a9e1"></path>
            <path d="M93.24 95.53c-.72 1.29-1.37 2.63-2.17 3.88-3.94 6.1-7.97 12.15-11.88 18.28-3.31 5.17-5.49 10.82-6.43 16.9-.64 4.14-.2 8.26.46 12.37.55 3.43.96 6.89 1.47 10.33.51 3.44 1.08 6.86 1.59 10.3.41 2.76.64 5.56 1.22 8.28.88 4.14 1.99 8.23 2.99 12.34.03.12-.03.26-.05.46-1.37-.53-1.78-1.78-2.09-2.9-1.55-5.57-3.14-11.14-4.46-16.78-1.62-6.94-3.04-13.92-4.42-20.91-.84-4.23-1.63-8.47-1.48-12.83.2-5.53 1.98-10.57 4.74-15.27 3.32-5.65 7.53-10.65 11.87-15.54 2.72-3.07 5.43-6.15 8.15-9.23l.49.32Z" fill="#36a9e1"></path>
            <path d="M128.58 58.66c-.56.5-1.13 1.17-1.25 1.1-.69-.42-1.27-1.01-1.88-1.54l1.57-1.45 1.56 1.89Z" fill="#36a9e1"></path>
            <path d="M234.34 453.87c-2.76.93-5.52 1.89-8.3 2.79-.77.25-1.58.47-2.38.52-.4.02-.82-.38-1.23-.59.24-.32.43-.87.73-.94 3.49-.81 7-1.55 10.51-2.3.17-.04.37.02.55.03l.12.5Z"></path>
            <path d="M217.1 447.81c.38-1.31 1.09-1.37 2.92-.26-1.11.1-1.93.17-2.92.26Z"></path>
            <path d="M107.37 248.06c-1.42-1.11-2.93-2.11-4.22-3.34-2.48-2.38-4.85-4.88-7.21-7.38-.24-.25-.08-.88-.11-1.33.49.08 1.16-.02 1.43.26 3.54 3.74 7.01 7.54 10.51 11.32l-.39.47Z"></path>
            <path d="M106.88 235.57c-.58-.4-1.16-.71-1.63-1.15-2.37-2.24-4.67-4.54-6.32-7.41-.47-.81-.43-1.51.37-1.99.22-.13.84 0 .98.2 2.26 3.29 4.47 6.61 6.68 9.93.03.05-.03.17-.1.42Z"></path>
            <path d="M106.34 226.19c-1.91-2.14-3.82-4.28-5.72-6.43-.21-.23-.45-.53-.46-.81-.02-.3.21-.62.32-.93.27.11.63.13.78.33 1.87 2.45 3.71 4.92 5.55 7.39l-.47.46Z"></path>
            <path d="M106.59 214.12c-1.83-1.3-2.2-2.24-1.43-3.3l1.43 3.3Z"></path>
        </g>
    </g>
</svg>