<svg width="195.934" height="196.035" viewBox="0 0 51.841 51.868" xmlns:xlink="http://www.w3.org/1999/xlink" xmlns="http://www.w3.org/2000/svg" class="h-[32px] w-[32px] fill-[#2D3748] dark:fill-gray-600"><defs><linearGradient id="ens_vision_new_svg__a"><stop style="stop-color:#f59e0b;stop-opacity:1" offset="0"></stop><stop style="stop-color:#facc15;stop-opacity:1" offset="1"></stop></linearGradient><linearGradient xlink:href="#ens_vision_new_svg__a" id="ens_vision_new_svg__b" x1="268.043" y1="155.942" x2="353.977" y2="255.942" gradientUnits="userSpaceOnUse"></linearGradient></defs><path d="M256.002 353.959c-54.015 0-97.959-43.944-97.959-97.959 0-61.991 55.517-105.156 111.746-97.112-7.559 8.95-12.185 20.178-13.298 29.078-37.04-.269-68.502 29.692-68.502 68.034 0 37.502 30.51 68.012 68.011 68.012 38.899 0 68.979-32.31 68.022-69.761 10.333-1.736 20.47-6.531 28.713-13.732 9.51 59.743-36.823 113.44-96.733 113.44z" fill="#FBBF24" style="fill-opacity:1;fill:url(#ens_vision_new_svg__b)" transform="matrix(.26458 0 0 .26458 -41.816 -41.784)"></path><path d="M33.896 22.438v.002c2.545 6.36-2.074 12.224-7.978 12.224-8.598 0-11.98-11.208-4.822-15.967 4.779-3.176 10.742-.931 12.8 3.741zM35.785 7.577c2.84-5.833 11.695-3.83 11.705 2.664 0 3.635-3.05 6.267-6.31 6.168a17.877 17.877 0 0 0-6.005-5.895 6.065 6.065 0 0 1 .61-2.937z" fill="#fff"></path></svg>