<svg width="24" height="24" viewBox="0 0 48 49" xmlns="http://www.w3.org/2000/svg" aria-hidden="true" class="fill-current undefined"><g clip-path="url(#clip0_956_48077)"><path fill-rule="evenodd" clip-rule="evenodd" d="M23 27.0251C19.0527 27.0251 15.8514 23.8262 15.8514 19.8765C15.8514 15.9268 19.0527 12.7278 23 12.7278C26.9473 12.7278 30.1487 15.9268 30.1487 19.8765C30.1487 23.8262 26.9473 27.0251 23 27.0251ZM19.8919 19.8765C19.8919 21.5937 21.2843 22.9846 23 22.9846C24.7157 22.9846 26.1081 21.5937 26.1081 19.8765C26.1081 18.1592 24.7157 16.7684 23 16.7684C21.2843 16.7684 19.8919 18.1592 19.8919 19.8765Z"></path><path fill-rule="evenodd" clip-rule="evenodd" d="M0 19.8859L13.6757 6.20081H32.3243L46 19.8859L23 42.8765L0 19.8859ZM33.5676 14.9034C27.7554 9.06723 18.2446 9.06726 12.4324 14.9035L7.45946 19.8765L12.4324 24.8495C18.2446 30.6857 27.7554 30.6857 33.5676 24.8495L38.5405 19.8765L33.5676 14.9034Z"></path></g><defs><clipPath id="clip0_956_48077"><rect width="48" height="48" fill="white" transform="translate(0 0.538696)"></rect></clipPath></defs></svg>